%TF.GenerationSoftware,KiCad,Pcbnew,9.0.4*%
%TF.CreationDate,2025-12-29T18:36:19-08:00*%
%TF.ProjectId,LS-70B-Adapter,4c532d37-3042-42d4-9164-61707465722e,rev?*%
%TF.SameCoordinates,Original*%
%TF.FileFunction,Legend,Top*%
%TF.FilePolarity,Positive*%
%FSLAX46Y46*%
G04 Gerber Fmt 4.6, Leading zero omitted, Abs format (unit mm)*
G04 Created by KiCad (PCBNEW 9.0.4) date 2025-12-29 18:36:19*
%MOMM*%
%LPD*%
G01*
G04 APERTURE LIST*
%ADD10C,0.200000*%
%ADD11C,0.100000*%
%ADD12C,0.120000*%
G04 APERTURE END LIST*
D10*
X106945238Y-73862219D02*
X107040476Y-73862219D01*
X107040476Y-73862219D02*
X107135714Y-73909838D01*
X107135714Y-73909838D02*
X107183333Y-73957457D01*
X107183333Y-73957457D02*
X107230952Y-74052695D01*
X107230952Y-74052695D02*
X107278571Y-74243171D01*
X107278571Y-74243171D02*
X107278571Y-74481266D01*
X107278571Y-74481266D02*
X107230952Y-74671742D01*
X107230952Y-74671742D02*
X107183333Y-74766980D01*
X107183333Y-74766980D02*
X107135714Y-74814600D01*
X107135714Y-74814600D02*
X107040476Y-74862219D01*
X107040476Y-74862219D02*
X106945238Y-74862219D01*
X106945238Y-74862219D02*
X106850000Y-74814600D01*
X106850000Y-74814600D02*
X106802381Y-74766980D01*
X106802381Y-74766980D02*
X106754762Y-74671742D01*
X106754762Y-74671742D02*
X106707143Y-74481266D01*
X106707143Y-74481266D02*
X106707143Y-74243171D01*
X106707143Y-74243171D02*
X106754762Y-74052695D01*
X106754762Y-74052695D02*
X106802381Y-73957457D01*
X106802381Y-73957457D02*
X106850000Y-73909838D01*
X106850000Y-73909838D02*
X106945238Y-73862219D01*
X107850000Y-74290790D02*
X107754762Y-74243171D01*
X107754762Y-74243171D02*
X107707143Y-74195552D01*
X107707143Y-74195552D02*
X107659524Y-74100314D01*
X107659524Y-74100314D02*
X107659524Y-74052695D01*
X107659524Y-74052695D02*
X107707143Y-73957457D01*
X107707143Y-73957457D02*
X107754762Y-73909838D01*
X107754762Y-73909838D02*
X107850000Y-73862219D01*
X107850000Y-73862219D02*
X108040476Y-73862219D01*
X108040476Y-73862219D02*
X108135714Y-73909838D01*
X108135714Y-73909838D02*
X108183333Y-73957457D01*
X108183333Y-73957457D02*
X108230952Y-74052695D01*
X108230952Y-74052695D02*
X108230952Y-74100314D01*
X108230952Y-74100314D02*
X108183333Y-74195552D01*
X108183333Y-74195552D02*
X108135714Y-74243171D01*
X108135714Y-74243171D02*
X108040476Y-74290790D01*
X108040476Y-74290790D02*
X107850000Y-74290790D01*
X107850000Y-74290790D02*
X107754762Y-74338409D01*
X107754762Y-74338409D02*
X107707143Y-74386028D01*
X107707143Y-74386028D02*
X107659524Y-74481266D01*
X107659524Y-74481266D02*
X107659524Y-74671742D01*
X107659524Y-74671742D02*
X107707143Y-74766980D01*
X107707143Y-74766980D02*
X107754762Y-74814600D01*
X107754762Y-74814600D02*
X107850000Y-74862219D01*
X107850000Y-74862219D02*
X108040476Y-74862219D01*
X108040476Y-74862219D02*
X108135714Y-74814600D01*
X108135714Y-74814600D02*
X108183333Y-74766980D01*
X108183333Y-74766980D02*
X108230952Y-74671742D01*
X108230952Y-74671742D02*
X108230952Y-74481266D01*
X108230952Y-74481266D02*
X108183333Y-74386028D01*
X108183333Y-74386028D02*
X108135714Y-74338409D01*
X108135714Y-74338409D02*
X108040476Y-74290790D01*
X108850000Y-73862219D02*
X108945238Y-73862219D01*
X108945238Y-73862219D02*
X109040476Y-73909838D01*
X109040476Y-73909838D02*
X109088095Y-73957457D01*
X109088095Y-73957457D02*
X109135714Y-74052695D01*
X109135714Y-74052695D02*
X109183333Y-74243171D01*
X109183333Y-74243171D02*
X109183333Y-74481266D01*
X109183333Y-74481266D02*
X109135714Y-74671742D01*
X109135714Y-74671742D02*
X109088095Y-74766980D01*
X109088095Y-74766980D02*
X109040476Y-74814600D01*
X109040476Y-74814600D02*
X108945238Y-74862219D01*
X108945238Y-74862219D02*
X108850000Y-74862219D01*
X108850000Y-74862219D02*
X108754762Y-74814600D01*
X108754762Y-74814600D02*
X108707143Y-74766980D01*
X108707143Y-74766980D02*
X108659524Y-74671742D01*
X108659524Y-74671742D02*
X108611905Y-74481266D01*
X108611905Y-74481266D02*
X108611905Y-74243171D01*
X108611905Y-74243171D02*
X108659524Y-74052695D01*
X108659524Y-74052695D02*
X108707143Y-73957457D01*
X108707143Y-73957457D02*
X108754762Y-73909838D01*
X108754762Y-73909838D02*
X108850000Y-73862219D01*
X110088095Y-73862219D02*
X109611905Y-73862219D01*
X109611905Y-73862219D02*
X109564286Y-74338409D01*
X109564286Y-74338409D02*
X109611905Y-74290790D01*
X109611905Y-74290790D02*
X109707143Y-74243171D01*
X109707143Y-74243171D02*
X109945238Y-74243171D01*
X109945238Y-74243171D02*
X110040476Y-74290790D01*
X110040476Y-74290790D02*
X110088095Y-74338409D01*
X110088095Y-74338409D02*
X110135714Y-74433647D01*
X110135714Y-74433647D02*
X110135714Y-74671742D01*
X110135714Y-74671742D02*
X110088095Y-74766980D01*
X110088095Y-74766980D02*
X110040476Y-74814600D01*
X110040476Y-74814600D02*
X109945238Y-74862219D01*
X109945238Y-74862219D02*
X109707143Y-74862219D01*
X109707143Y-74862219D02*
X109611905Y-74814600D01*
X109611905Y-74814600D02*
X109564286Y-74766980D01*
X111278572Y-74814600D02*
X111421429Y-74862219D01*
X111421429Y-74862219D02*
X111659524Y-74862219D01*
X111659524Y-74862219D02*
X111754762Y-74814600D01*
X111754762Y-74814600D02*
X111802381Y-74766980D01*
X111802381Y-74766980D02*
X111850000Y-74671742D01*
X111850000Y-74671742D02*
X111850000Y-74576504D01*
X111850000Y-74576504D02*
X111802381Y-74481266D01*
X111802381Y-74481266D02*
X111754762Y-74433647D01*
X111754762Y-74433647D02*
X111659524Y-74386028D01*
X111659524Y-74386028D02*
X111469048Y-74338409D01*
X111469048Y-74338409D02*
X111373810Y-74290790D01*
X111373810Y-74290790D02*
X111326191Y-74243171D01*
X111326191Y-74243171D02*
X111278572Y-74147933D01*
X111278572Y-74147933D02*
X111278572Y-74052695D01*
X111278572Y-74052695D02*
X111326191Y-73957457D01*
X111326191Y-73957457D02*
X111373810Y-73909838D01*
X111373810Y-73909838D02*
X111469048Y-73862219D01*
X111469048Y-73862219D02*
X111707143Y-73862219D01*
X111707143Y-73862219D02*
X111850000Y-73909838D01*
X112278572Y-74862219D02*
X112278572Y-74195552D01*
X112278572Y-73862219D02*
X112230953Y-73909838D01*
X112230953Y-73909838D02*
X112278572Y-73957457D01*
X112278572Y-73957457D02*
X112326191Y-73909838D01*
X112326191Y-73909838D02*
X112278572Y-73862219D01*
X112278572Y-73862219D02*
X112278572Y-73957457D01*
X112659524Y-74195552D02*
X113183333Y-74195552D01*
X113183333Y-74195552D02*
X112659524Y-74862219D01*
X112659524Y-74862219D02*
X113183333Y-74862219D01*
X113945238Y-74814600D02*
X113850000Y-74862219D01*
X113850000Y-74862219D02*
X113659524Y-74862219D01*
X113659524Y-74862219D02*
X113564286Y-74814600D01*
X113564286Y-74814600D02*
X113516667Y-74719361D01*
X113516667Y-74719361D02*
X113516667Y-74338409D01*
X113516667Y-74338409D02*
X113564286Y-74243171D01*
X113564286Y-74243171D02*
X113659524Y-74195552D01*
X113659524Y-74195552D02*
X113850000Y-74195552D01*
X113850000Y-74195552D02*
X113945238Y-74243171D01*
X113945238Y-74243171D02*
X113992857Y-74338409D01*
X113992857Y-74338409D02*
X113992857Y-74433647D01*
X113992857Y-74433647D02*
X113516667Y-74528885D01*
X143557275Y-56080326D02*
X142557275Y-56080326D01*
X142557275Y-56080326D02*
X143271560Y-55746993D01*
X143271560Y-55746993D02*
X142557275Y-55413660D01*
X142557275Y-55413660D02*
X143557275Y-55413660D01*
X143557275Y-54508898D02*
X143033465Y-54508898D01*
X143033465Y-54508898D02*
X142938227Y-54556517D01*
X142938227Y-54556517D02*
X142890608Y-54651755D01*
X142890608Y-54651755D02*
X142890608Y-54842231D01*
X142890608Y-54842231D02*
X142938227Y-54937469D01*
X143509656Y-54508898D02*
X143557275Y-54604136D01*
X143557275Y-54604136D02*
X143557275Y-54842231D01*
X143557275Y-54842231D02*
X143509656Y-54937469D01*
X143509656Y-54937469D02*
X143414417Y-54985088D01*
X143414417Y-54985088D02*
X143319179Y-54985088D01*
X143319179Y-54985088D02*
X143223941Y-54937469D01*
X143223941Y-54937469D02*
X143176322Y-54842231D01*
X143176322Y-54842231D02*
X143176322Y-54604136D01*
X143176322Y-54604136D02*
X143128703Y-54508898D01*
X143557275Y-54032707D02*
X142890608Y-54032707D01*
X143081084Y-54032707D02*
X142985846Y-53985088D01*
X142985846Y-53985088D02*
X142938227Y-53937469D01*
X142938227Y-53937469D02*
X142890608Y-53842231D01*
X142890608Y-53842231D02*
X142890608Y-53746993D01*
X143557275Y-53413659D02*
X142557275Y-53413659D01*
X143176322Y-53318421D02*
X143557275Y-53032707D01*
X142890608Y-53032707D02*
X143271560Y-53413659D01*
X143033465Y-51508897D02*
X143033465Y-51842230D01*
X143557275Y-51842230D02*
X142557275Y-51842230D01*
X142557275Y-51842230D02*
X142557275Y-51366040D01*
X143557275Y-50556516D02*
X143033465Y-50556516D01*
X143033465Y-50556516D02*
X142938227Y-50604135D01*
X142938227Y-50604135D02*
X142890608Y-50699373D01*
X142890608Y-50699373D02*
X142890608Y-50889849D01*
X142890608Y-50889849D02*
X142938227Y-50985087D01*
X143509656Y-50556516D02*
X143557275Y-50651754D01*
X143557275Y-50651754D02*
X143557275Y-50889849D01*
X143557275Y-50889849D02*
X143509656Y-50985087D01*
X143509656Y-50985087D02*
X143414417Y-51032706D01*
X143414417Y-51032706D02*
X143319179Y-51032706D01*
X143319179Y-51032706D02*
X143223941Y-50985087D01*
X143223941Y-50985087D02*
X143176322Y-50889849D01*
X143176322Y-50889849D02*
X143176322Y-50651754D01*
X143176322Y-50651754D02*
X143128703Y-50556516D01*
X142890608Y-49651754D02*
X143557275Y-49651754D01*
X142890608Y-50080325D02*
X143414417Y-50080325D01*
X143414417Y-50080325D02*
X143509656Y-50032706D01*
X143509656Y-50032706D02*
X143557275Y-49937468D01*
X143557275Y-49937468D02*
X143557275Y-49794611D01*
X143557275Y-49794611D02*
X143509656Y-49699373D01*
X143509656Y-49699373D02*
X143462036Y-49651754D01*
X143557275Y-49032706D02*
X143509656Y-49127944D01*
X143509656Y-49127944D02*
X143414417Y-49175563D01*
X143414417Y-49175563D02*
X142557275Y-49175563D01*
X143557275Y-48651753D02*
X142557275Y-48651753D01*
X143176322Y-48556515D02*
X143557275Y-48270801D01*
X142890608Y-48270801D02*
X143271560Y-48651753D01*
X142890608Y-47842229D02*
X143557275Y-47842229D01*
X142985846Y-47842229D02*
X142938227Y-47794610D01*
X142938227Y-47794610D02*
X142890608Y-47699372D01*
X142890608Y-47699372D02*
X142890608Y-47556515D01*
X142890608Y-47556515D02*
X142938227Y-47461277D01*
X142938227Y-47461277D02*
X143033465Y-47413658D01*
X143033465Y-47413658D02*
X143557275Y-47413658D01*
X143509656Y-46556515D02*
X143557275Y-46651753D01*
X143557275Y-46651753D02*
X143557275Y-46842229D01*
X143557275Y-46842229D02*
X143509656Y-46937467D01*
X143509656Y-46937467D02*
X143414417Y-46985086D01*
X143414417Y-46985086D02*
X143033465Y-46985086D01*
X143033465Y-46985086D02*
X142938227Y-46937467D01*
X142938227Y-46937467D02*
X142890608Y-46842229D01*
X142890608Y-46842229D02*
X142890608Y-46651753D01*
X142890608Y-46651753D02*
X142938227Y-46556515D01*
X142938227Y-46556515D02*
X143033465Y-46508896D01*
X143033465Y-46508896D02*
X143128703Y-46508896D01*
X143128703Y-46508896D02*
X143223941Y-46985086D01*
X143557275Y-46080324D02*
X142890608Y-46080324D01*
X143081084Y-46080324D02*
X142985846Y-46032705D01*
X142985846Y-46032705D02*
X142938227Y-45985086D01*
X142938227Y-45985086D02*
X142890608Y-45889848D01*
X142890608Y-45889848D02*
X142890608Y-45794610D01*
X145167219Y-56080326D02*
X144167219Y-56080326D01*
X144167219Y-56080326D02*
X144167219Y-55842231D01*
X144167219Y-55842231D02*
X144214838Y-55699374D01*
X144214838Y-55699374D02*
X144310076Y-55604136D01*
X144310076Y-55604136D02*
X144405314Y-55556517D01*
X144405314Y-55556517D02*
X144595790Y-55508898D01*
X144595790Y-55508898D02*
X144738647Y-55508898D01*
X144738647Y-55508898D02*
X144929123Y-55556517D01*
X144929123Y-55556517D02*
X145024361Y-55604136D01*
X145024361Y-55604136D02*
X145119600Y-55699374D01*
X145119600Y-55699374D02*
X145167219Y-55842231D01*
X145167219Y-55842231D02*
X145167219Y-56080326D01*
X145119600Y-54699374D02*
X145167219Y-54794612D01*
X145167219Y-54794612D02*
X145167219Y-54985088D01*
X145167219Y-54985088D02*
X145119600Y-55080326D01*
X145119600Y-55080326D02*
X145024361Y-55127945D01*
X145024361Y-55127945D02*
X144643409Y-55127945D01*
X144643409Y-55127945D02*
X144548171Y-55080326D01*
X144548171Y-55080326D02*
X144500552Y-54985088D01*
X144500552Y-54985088D02*
X144500552Y-54794612D01*
X144500552Y-54794612D02*
X144548171Y-54699374D01*
X144548171Y-54699374D02*
X144643409Y-54651755D01*
X144643409Y-54651755D02*
X144738647Y-54651755D01*
X144738647Y-54651755D02*
X144833885Y-55127945D01*
X145119600Y-53794612D02*
X145167219Y-53889850D01*
X145167219Y-53889850D02*
X145167219Y-54080326D01*
X145167219Y-54080326D02*
X145119600Y-54175564D01*
X145119600Y-54175564D02*
X145071980Y-54223183D01*
X145071980Y-54223183D02*
X144976742Y-54270802D01*
X144976742Y-54270802D02*
X144691028Y-54270802D01*
X144691028Y-54270802D02*
X144595790Y-54223183D01*
X144595790Y-54223183D02*
X144548171Y-54175564D01*
X144548171Y-54175564D02*
X144500552Y-54080326D01*
X144500552Y-54080326D02*
X144500552Y-53889850D01*
X144500552Y-53889850D02*
X144548171Y-53794612D01*
X144262457Y-52651754D02*
X144214838Y-52604135D01*
X144214838Y-52604135D02*
X144167219Y-52508897D01*
X144167219Y-52508897D02*
X144167219Y-52270802D01*
X144167219Y-52270802D02*
X144214838Y-52175564D01*
X144214838Y-52175564D02*
X144262457Y-52127945D01*
X144262457Y-52127945D02*
X144357695Y-52080326D01*
X144357695Y-52080326D02*
X144452933Y-52080326D01*
X144452933Y-52080326D02*
X144595790Y-52127945D01*
X144595790Y-52127945D02*
X145167219Y-52699373D01*
X145167219Y-52699373D02*
X145167219Y-52080326D01*
X145167219Y-51604135D02*
X145167219Y-51413659D01*
X145167219Y-51413659D02*
X145119600Y-51318421D01*
X145119600Y-51318421D02*
X145071980Y-51270802D01*
X145071980Y-51270802D02*
X144929123Y-51175564D01*
X144929123Y-51175564D02*
X144738647Y-51127945D01*
X144738647Y-51127945D02*
X144357695Y-51127945D01*
X144357695Y-51127945D02*
X144262457Y-51175564D01*
X144262457Y-51175564D02*
X144214838Y-51223183D01*
X144214838Y-51223183D02*
X144167219Y-51318421D01*
X144167219Y-51318421D02*
X144167219Y-51508897D01*
X144167219Y-51508897D02*
X144214838Y-51604135D01*
X144214838Y-51604135D02*
X144262457Y-51651754D01*
X144262457Y-51651754D02*
X144357695Y-51699373D01*
X144357695Y-51699373D02*
X144595790Y-51699373D01*
X144595790Y-51699373D02*
X144691028Y-51651754D01*
X144691028Y-51651754D02*
X144738647Y-51604135D01*
X144738647Y-51604135D02*
X144786266Y-51508897D01*
X144786266Y-51508897D02*
X144786266Y-51318421D01*
X144786266Y-51318421D02*
X144738647Y-51223183D01*
X144738647Y-51223183D02*
X144691028Y-51175564D01*
X144691028Y-51175564D02*
X144595790Y-51127945D01*
X144262457Y-49985087D02*
X144214838Y-49937468D01*
X144214838Y-49937468D02*
X144167219Y-49842230D01*
X144167219Y-49842230D02*
X144167219Y-49604135D01*
X144167219Y-49604135D02*
X144214838Y-49508897D01*
X144214838Y-49508897D02*
X144262457Y-49461278D01*
X144262457Y-49461278D02*
X144357695Y-49413659D01*
X144357695Y-49413659D02*
X144452933Y-49413659D01*
X144452933Y-49413659D02*
X144595790Y-49461278D01*
X144595790Y-49461278D02*
X145167219Y-50032706D01*
X145167219Y-50032706D02*
X145167219Y-49413659D01*
X144167219Y-48794611D02*
X144167219Y-48699373D01*
X144167219Y-48699373D02*
X144214838Y-48604135D01*
X144214838Y-48604135D02*
X144262457Y-48556516D01*
X144262457Y-48556516D02*
X144357695Y-48508897D01*
X144357695Y-48508897D02*
X144548171Y-48461278D01*
X144548171Y-48461278D02*
X144786266Y-48461278D01*
X144786266Y-48461278D02*
X144976742Y-48508897D01*
X144976742Y-48508897D02*
X145071980Y-48556516D01*
X145071980Y-48556516D02*
X145119600Y-48604135D01*
X145119600Y-48604135D02*
X145167219Y-48699373D01*
X145167219Y-48699373D02*
X145167219Y-48794611D01*
X145167219Y-48794611D02*
X145119600Y-48889849D01*
X145119600Y-48889849D02*
X145071980Y-48937468D01*
X145071980Y-48937468D02*
X144976742Y-48985087D01*
X144976742Y-48985087D02*
X144786266Y-49032706D01*
X144786266Y-49032706D02*
X144548171Y-49032706D01*
X144548171Y-49032706D02*
X144357695Y-48985087D01*
X144357695Y-48985087D02*
X144262457Y-48937468D01*
X144262457Y-48937468D02*
X144214838Y-48889849D01*
X144214838Y-48889849D02*
X144167219Y-48794611D01*
X144262457Y-48080325D02*
X144214838Y-48032706D01*
X144214838Y-48032706D02*
X144167219Y-47937468D01*
X144167219Y-47937468D02*
X144167219Y-47699373D01*
X144167219Y-47699373D02*
X144214838Y-47604135D01*
X144214838Y-47604135D02*
X144262457Y-47556516D01*
X144262457Y-47556516D02*
X144357695Y-47508897D01*
X144357695Y-47508897D02*
X144452933Y-47508897D01*
X144452933Y-47508897D02*
X144595790Y-47556516D01*
X144595790Y-47556516D02*
X145167219Y-48127944D01*
X145167219Y-48127944D02*
X145167219Y-47508897D01*
X144167219Y-46604135D02*
X144167219Y-47080325D01*
X144167219Y-47080325D02*
X144643409Y-47127944D01*
X144643409Y-47127944D02*
X144595790Y-47080325D01*
X144595790Y-47080325D02*
X144548171Y-46985087D01*
X144548171Y-46985087D02*
X144548171Y-46746992D01*
X144548171Y-46746992D02*
X144595790Y-46651754D01*
X144595790Y-46651754D02*
X144643409Y-46604135D01*
X144643409Y-46604135D02*
X144738647Y-46556516D01*
X144738647Y-46556516D02*
X144976742Y-46556516D01*
X144976742Y-46556516D02*
X145071980Y-46604135D01*
X145071980Y-46604135D02*
X145119600Y-46651754D01*
X145119600Y-46651754D02*
X145167219Y-46746992D01*
X145167219Y-46746992D02*
X145167219Y-46985087D01*
X145167219Y-46985087D02*
X145119600Y-47080325D01*
X145119600Y-47080325D02*
X145071980Y-47127944D01*
X101109523Y-74962219D02*
X100538095Y-74962219D01*
X100823809Y-74962219D02*
X100823809Y-73962219D01*
X100823809Y-73962219D02*
X100728571Y-74105076D01*
X100728571Y-74105076D02*
X100633333Y-74200314D01*
X100633333Y-74200314D02*
X100538095Y-74247933D01*
X101490476Y-74057457D02*
X101538095Y-74009838D01*
X101538095Y-74009838D02*
X101633333Y-73962219D01*
X101633333Y-73962219D02*
X101871428Y-73962219D01*
X101871428Y-73962219D02*
X101966666Y-74009838D01*
X101966666Y-74009838D02*
X102014285Y-74057457D01*
X102014285Y-74057457D02*
X102061904Y-74152695D01*
X102061904Y-74152695D02*
X102061904Y-74247933D01*
X102061904Y-74247933D02*
X102014285Y-74390790D01*
X102014285Y-74390790D02*
X101442857Y-74962219D01*
X101442857Y-74962219D02*
X102061904Y-74962219D01*
X101089523Y-72432219D02*
X100518095Y-72432219D01*
X100803809Y-72432219D02*
X100803809Y-71432219D01*
X100803809Y-71432219D02*
X100708571Y-71575076D01*
X100708571Y-71575076D02*
X100613333Y-71670314D01*
X100613333Y-71670314D02*
X100518095Y-71717933D01*
X102041904Y-72432219D02*
X101470476Y-72432219D01*
X101756190Y-72432219D02*
X101756190Y-71432219D01*
X101756190Y-71432219D02*
X101660952Y-71575076D01*
X101660952Y-71575076D02*
X101565714Y-71670314D01*
X101565714Y-71670314D02*
X101470476Y-71717933D01*
X101089523Y-69862219D02*
X100518095Y-69862219D01*
X100803809Y-69862219D02*
X100803809Y-68862219D01*
X100803809Y-68862219D02*
X100708571Y-69005076D01*
X100708571Y-69005076D02*
X100613333Y-69100314D01*
X100613333Y-69100314D02*
X100518095Y-69147933D01*
X101708571Y-68862219D02*
X101803809Y-68862219D01*
X101803809Y-68862219D02*
X101899047Y-68909838D01*
X101899047Y-68909838D02*
X101946666Y-68957457D01*
X101946666Y-68957457D02*
X101994285Y-69052695D01*
X101994285Y-69052695D02*
X102041904Y-69243171D01*
X102041904Y-69243171D02*
X102041904Y-69481266D01*
X102041904Y-69481266D02*
X101994285Y-69671742D01*
X101994285Y-69671742D02*
X101946666Y-69766980D01*
X101946666Y-69766980D02*
X101899047Y-69814600D01*
X101899047Y-69814600D02*
X101803809Y-69862219D01*
X101803809Y-69862219D02*
X101708571Y-69862219D01*
X101708571Y-69862219D02*
X101613333Y-69814600D01*
X101613333Y-69814600D02*
X101565714Y-69766980D01*
X101565714Y-69766980D02*
X101518095Y-69671742D01*
X101518095Y-69671742D02*
X101470476Y-69481266D01*
X101470476Y-69481266D02*
X101470476Y-69243171D01*
X101470476Y-69243171D02*
X101518095Y-69052695D01*
X101518095Y-69052695D02*
X101565714Y-68957457D01*
X101565714Y-68957457D02*
X101613333Y-68909838D01*
X101613333Y-68909838D02*
X101708571Y-68862219D01*
X101069524Y-67272219D02*
X101260000Y-67272219D01*
X101260000Y-67272219D02*
X101355238Y-67224600D01*
X101355238Y-67224600D02*
X101402857Y-67176980D01*
X101402857Y-67176980D02*
X101498095Y-67034123D01*
X101498095Y-67034123D02*
X101545714Y-66843647D01*
X101545714Y-66843647D02*
X101545714Y-66462695D01*
X101545714Y-66462695D02*
X101498095Y-66367457D01*
X101498095Y-66367457D02*
X101450476Y-66319838D01*
X101450476Y-66319838D02*
X101355238Y-66272219D01*
X101355238Y-66272219D02*
X101164762Y-66272219D01*
X101164762Y-66272219D02*
X101069524Y-66319838D01*
X101069524Y-66319838D02*
X101021905Y-66367457D01*
X101021905Y-66367457D02*
X100974286Y-66462695D01*
X100974286Y-66462695D02*
X100974286Y-66700790D01*
X100974286Y-66700790D02*
X101021905Y-66796028D01*
X101021905Y-66796028D02*
X101069524Y-66843647D01*
X101069524Y-66843647D02*
X101164762Y-66891266D01*
X101164762Y-66891266D02*
X101355238Y-66891266D01*
X101355238Y-66891266D02*
X101450476Y-66843647D01*
X101450476Y-66843647D02*
X101498095Y-66796028D01*
X101498095Y-66796028D02*
X101545714Y-66700790D01*
X100946667Y-58682219D02*
X101613333Y-58682219D01*
X101613333Y-58682219D02*
X101184762Y-59682219D01*
X101450476Y-56142219D02*
X101260000Y-56142219D01*
X101260000Y-56142219D02*
X101164762Y-56189838D01*
X101164762Y-56189838D02*
X101117143Y-56237457D01*
X101117143Y-56237457D02*
X101021905Y-56380314D01*
X101021905Y-56380314D02*
X100974286Y-56570790D01*
X100974286Y-56570790D02*
X100974286Y-56951742D01*
X100974286Y-56951742D02*
X101021905Y-57046980D01*
X101021905Y-57046980D02*
X101069524Y-57094600D01*
X101069524Y-57094600D02*
X101164762Y-57142219D01*
X101164762Y-57142219D02*
X101355238Y-57142219D01*
X101355238Y-57142219D02*
X101450476Y-57094600D01*
X101450476Y-57094600D02*
X101498095Y-57046980D01*
X101498095Y-57046980D02*
X101545714Y-56951742D01*
X101545714Y-56951742D02*
X101545714Y-56713647D01*
X101545714Y-56713647D02*
X101498095Y-56618409D01*
X101498095Y-56618409D02*
X101450476Y-56570790D01*
X101450476Y-56570790D02*
X101355238Y-56523171D01*
X101355238Y-56523171D02*
X101164762Y-56523171D01*
X101164762Y-56523171D02*
X101069524Y-56570790D01*
X101069524Y-56570790D02*
X101021905Y-56618409D01*
X101021905Y-56618409D02*
X100974286Y-56713647D01*
X101498095Y-53612219D02*
X101021905Y-53612219D01*
X101021905Y-53612219D02*
X100974286Y-54088409D01*
X100974286Y-54088409D02*
X101021905Y-54040790D01*
X101021905Y-54040790D02*
X101117143Y-53993171D01*
X101117143Y-53993171D02*
X101355238Y-53993171D01*
X101355238Y-53993171D02*
X101450476Y-54040790D01*
X101450476Y-54040790D02*
X101498095Y-54088409D01*
X101498095Y-54088409D02*
X101545714Y-54183647D01*
X101545714Y-54183647D02*
X101545714Y-54421742D01*
X101545714Y-54421742D02*
X101498095Y-54516980D01*
X101498095Y-54516980D02*
X101450476Y-54564600D01*
X101450476Y-54564600D02*
X101355238Y-54612219D01*
X101355238Y-54612219D02*
X101117143Y-54612219D01*
X101117143Y-54612219D02*
X101021905Y-54564600D01*
X101021905Y-54564600D02*
X100974286Y-54516980D01*
X101450476Y-51395552D02*
X101450476Y-52062219D01*
X101212381Y-51014600D02*
X100974286Y-51728885D01*
X100974286Y-51728885D02*
X101593333Y-51728885D01*
X100926667Y-48522219D02*
X101545714Y-48522219D01*
X101545714Y-48522219D02*
X101212381Y-48903171D01*
X101212381Y-48903171D02*
X101355238Y-48903171D01*
X101355238Y-48903171D02*
X101450476Y-48950790D01*
X101450476Y-48950790D02*
X101498095Y-48998409D01*
X101498095Y-48998409D02*
X101545714Y-49093647D01*
X101545714Y-49093647D02*
X101545714Y-49331742D01*
X101545714Y-49331742D02*
X101498095Y-49426980D01*
X101498095Y-49426980D02*
X101450476Y-49474600D01*
X101450476Y-49474600D02*
X101355238Y-49522219D01*
X101355238Y-49522219D02*
X101069524Y-49522219D01*
X101069524Y-49522219D02*
X100974286Y-49474600D01*
X100974286Y-49474600D02*
X100926667Y-49426980D01*
X100974286Y-46067457D02*
X101021905Y-46019838D01*
X101021905Y-46019838D02*
X101117143Y-45972219D01*
X101117143Y-45972219D02*
X101355238Y-45972219D01*
X101355238Y-45972219D02*
X101450476Y-46019838D01*
X101450476Y-46019838D02*
X101498095Y-46067457D01*
X101498095Y-46067457D02*
X101545714Y-46162695D01*
X101545714Y-46162695D02*
X101545714Y-46257933D01*
X101545714Y-46257933D02*
X101498095Y-46400790D01*
X101498095Y-46400790D02*
X100926667Y-46972219D01*
X100926667Y-46972219D02*
X101545714Y-46972219D01*
X117858095Y-73329838D02*
X117762857Y-73282219D01*
X117762857Y-73282219D02*
X117620000Y-73282219D01*
X117620000Y-73282219D02*
X117477143Y-73329838D01*
X117477143Y-73329838D02*
X117381905Y-73425076D01*
X117381905Y-73425076D02*
X117334286Y-73520314D01*
X117334286Y-73520314D02*
X117286667Y-73710790D01*
X117286667Y-73710790D02*
X117286667Y-73853647D01*
X117286667Y-73853647D02*
X117334286Y-74044123D01*
X117334286Y-74044123D02*
X117381905Y-74139361D01*
X117381905Y-74139361D02*
X117477143Y-74234600D01*
X117477143Y-74234600D02*
X117620000Y-74282219D01*
X117620000Y-74282219D02*
X117715238Y-74282219D01*
X117715238Y-74282219D02*
X117858095Y-74234600D01*
X117858095Y-74234600D02*
X117905714Y-74186980D01*
X117905714Y-74186980D02*
X117905714Y-73853647D01*
X117905714Y-73853647D02*
X117715238Y-73853647D01*
X118334286Y-74282219D02*
X118334286Y-73282219D01*
X118334286Y-73282219D02*
X118905714Y-74282219D01*
X118905714Y-74282219D02*
X118905714Y-73282219D01*
X119381905Y-74282219D02*
X119381905Y-73282219D01*
X119381905Y-73282219D02*
X119620000Y-73282219D01*
X119620000Y-73282219D02*
X119762857Y-73329838D01*
X119762857Y-73329838D02*
X119858095Y-73425076D01*
X119858095Y-73425076D02*
X119905714Y-73520314D01*
X119905714Y-73520314D02*
X119953333Y-73710790D01*
X119953333Y-73710790D02*
X119953333Y-73853647D01*
X119953333Y-73853647D02*
X119905714Y-74044123D01*
X119905714Y-74044123D02*
X119858095Y-74139361D01*
X119858095Y-74139361D02*
X119762857Y-74234600D01*
X119762857Y-74234600D02*
X119620000Y-74282219D01*
X119620000Y-74282219D02*
X119381905Y-74282219D01*
X117905714Y-66426504D02*
X118381904Y-66426504D01*
X117810476Y-66712219D02*
X118143809Y-65712219D01*
X118143809Y-65712219D02*
X118477142Y-66712219D01*
X118715238Y-65712219D02*
X119381904Y-65712219D01*
X119381904Y-65712219D02*
X118953333Y-66712219D01*
X117885714Y-63866504D02*
X118361904Y-63866504D01*
X117790476Y-64152219D02*
X118123809Y-63152219D01*
X118123809Y-63152219D02*
X118457142Y-64152219D01*
X119219047Y-63152219D02*
X119028571Y-63152219D01*
X119028571Y-63152219D02*
X118933333Y-63199838D01*
X118933333Y-63199838D02*
X118885714Y-63247457D01*
X118885714Y-63247457D02*
X118790476Y-63390314D01*
X118790476Y-63390314D02*
X118742857Y-63580790D01*
X118742857Y-63580790D02*
X118742857Y-63961742D01*
X118742857Y-63961742D02*
X118790476Y-64056980D01*
X118790476Y-64056980D02*
X118838095Y-64104600D01*
X118838095Y-64104600D02*
X118933333Y-64152219D01*
X118933333Y-64152219D02*
X119123809Y-64152219D01*
X119123809Y-64152219D02*
X119219047Y-64104600D01*
X119219047Y-64104600D02*
X119266666Y-64056980D01*
X119266666Y-64056980D02*
X119314285Y-63961742D01*
X119314285Y-63961742D02*
X119314285Y-63723647D01*
X119314285Y-63723647D02*
X119266666Y-63628409D01*
X119266666Y-63628409D02*
X119219047Y-63580790D01*
X119219047Y-63580790D02*
X119123809Y-63533171D01*
X119123809Y-63533171D02*
X118933333Y-63533171D01*
X118933333Y-63533171D02*
X118838095Y-63580790D01*
X118838095Y-63580790D02*
X118790476Y-63628409D01*
X118790476Y-63628409D02*
X118742857Y-63723647D01*
X117875714Y-61346504D02*
X118351904Y-61346504D01*
X117780476Y-61632219D02*
X118113809Y-60632219D01*
X118113809Y-60632219D02*
X118447142Y-61632219D01*
X119256666Y-60632219D02*
X118780476Y-60632219D01*
X118780476Y-60632219D02*
X118732857Y-61108409D01*
X118732857Y-61108409D02*
X118780476Y-61060790D01*
X118780476Y-61060790D02*
X118875714Y-61013171D01*
X118875714Y-61013171D02*
X119113809Y-61013171D01*
X119113809Y-61013171D02*
X119209047Y-61060790D01*
X119209047Y-61060790D02*
X119256666Y-61108409D01*
X119256666Y-61108409D02*
X119304285Y-61203647D01*
X119304285Y-61203647D02*
X119304285Y-61441742D01*
X119304285Y-61441742D02*
X119256666Y-61536980D01*
X119256666Y-61536980D02*
X119209047Y-61584600D01*
X119209047Y-61584600D02*
X119113809Y-61632219D01*
X119113809Y-61632219D02*
X118875714Y-61632219D01*
X118875714Y-61632219D02*
X118780476Y-61584600D01*
X118780476Y-61584600D02*
X118732857Y-61536980D01*
X117875714Y-58806504D02*
X118351904Y-58806504D01*
X117780476Y-59092219D02*
X118113809Y-58092219D01*
X118113809Y-58092219D02*
X118447142Y-59092219D01*
X119209047Y-58425552D02*
X119209047Y-59092219D01*
X118970952Y-58044600D02*
X118732857Y-58758885D01*
X118732857Y-58758885D02*
X119351904Y-58758885D01*
X117875714Y-56246504D02*
X118351904Y-56246504D01*
X117780476Y-56532219D02*
X118113809Y-55532219D01*
X118113809Y-55532219D02*
X118447142Y-56532219D01*
X118685238Y-55532219D02*
X119304285Y-55532219D01*
X119304285Y-55532219D02*
X118970952Y-55913171D01*
X118970952Y-55913171D02*
X119113809Y-55913171D01*
X119113809Y-55913171D02*
X119209047Y-55960790D01*
X119209047Y-55960790D02*
X119256666Y-56008409D01*
X119256666Y-56008409D02*
X119304285Y-56103647D01*
X119304285Y-56103647D02*
X119304285Y-56341742D01*
X119304285Y-56341742D02*
X119256666Y-56436980D01*
X119256666Y-56436980D02*
X119209047Y-56484600D01*
X119209047Y-56484600D02*
X119113809Y-56532219D01*
X119113809Y-56532219D02*
X118828095Y-56532219D01*
X118828095Y-56532219D02*
X118732857Y-56484600D01*
X118732857Y-56484600D02*
X118685238Y-56436980D01*
X117875714Y-53716504D02*
X118351904Y-53716504D01*
X117780476Y-54002219D02*
X118113809Y-53002219D01*
X118113809Y-53002219D02*
X118447142Y-54002219D01*
X118732857Y-53097457D02*
X118780476Y-53049838D01*
X118780476Y-53049838D02*
X118875714Y-53002219D01*
X118875714Y-53002219D02*
X119113809Y-53002219D01*
X119113809Y-53002219D02*
X119209047Y-53049838D01*
X119209047Y-53049838D02*
X119256666Y-53097457D01*
X119256666Y-53097457D02*
X119304285Y-53192695D01*
X119304285Y-53192695D02*
X119304285Y-53287933D01*
X119304285Y-53287933D02*
X119256666Y-53430790D01*
X119256666Y-53430790D02*
X118685238Y-54002219D01*
X118685238Y-54002219D02*
X119304285Y-54002219D01*
X117875714Y-51136504D02*
X118351904Y-51136504D01*
X117780476Y-51422219D02*
X118113809Y-50422219D01*
X118113809Y-50422219D02*
X118447142Y-51422219D01*
X119304285Y-51422219D02*
X118732857Y-51422219D01*
X119018571Y-51422219D02*
X119018571Y-50422219D01*
X119018571Y-50422219D02*
X118923333Y-50565076D01*
X118923333Y-50565076D02*
X118828095Y-50660314D01*
X118828095Y-50660314D02*
X118732857Y-50707933D01*
X117795714Y-48636504D02*
X118271904Y-48636504D01*
X117700476Y-48922219D02*
X118033809Y-47922219D01*
X118033809Y-47922219D02*
X118367142Y-48922219D01*
X118890952Y-47922219D02*
X118986190Y-47922219D01*
X118986190Y-47922219D02*
X119081428Y-47969838D01*
X119081428Y-47969838D02*
X119129047Y-48017457D01*
X119129047Y-48017457D02*
X119176666Y-48112695D01*
X119176666Y-48112695D02*
X119224285Y-48303171D01*
X119224285Y-48303171D02*
X119224285Y-48541266D01*
X119224285Y-48541266D02*
X119176666Y-48731742D01*
X119176666Y-48731742D02*
X119129047Y-48826980D01*
X119129047Y-48826980D02*
X119081428Y-48874600D01*
X119081428Y-48874600D02*
X118986190Y-48922219D01*
X118986190Y-48922219D02*
X118890952Y-48922219D01*
X118890952Y-48922219D02*
X118795714Y-48874600D01*
X118795714Y-48874600D02*
X118748095Y-48826980D01*
X118748095Y-48826980D02*
X118700476Y-48731742D01*
X118700476Y-48731742D02*
X118652857Y-48541266D01*
X118652857Y-48541266D02*
X118652857Y-48303171D01*
X118652857Y-48303171D02*
X118700476Y-48112695D01*
X118700476Y-48112695D02*
X118748095Y-48017457D01*
X118748095Y-48017457D02*
X118795714Y-47969838D01*
X118795714Y-47969838D02*
X118890952Y-47922219D01*
X130330041Y-68465714D02*
X130330041Y-67751429D01*
X130758612Y-68608571D02*
X129258612Y-68108571D01*
X129258612Y-68108571D02*
X130758612Y-67608571D01*
X130758612Y-67108572D02*
X129758612Y-67108572D01*
X130044326Y-67108572D02*
X129901469Y-67037143D01*
X129901469Y-67037143D02*
X129830041Y-66965715D01*
X129830041Y-66965715D02*
X129758612Y-66822857D01*
X129758612Y-66822857D02*
X129758612Y-66680000D01*
X130758612Y-65537144D02*
X129258612Y-65537144D01*
X130687184Y-65537144D02*
X130758612Y-65680001D01*
X130758612Y-65680001D02*
X130758612Y-65965715D01*
X130758612Y-65965715D02*
X130687184Y-66108572D01*
X130687184Y-66108572D02*
X130615755Y-66180001D01*
X130615755Y-66180001D02*
X130472898Y-66251429D01*
X130472898Y-66251429D02*
X130044326Y-66251429D01*
X130044326Y-66251429D02*
X129901469Y-66180001D01*
X129901469Y-66180001D02*
X129830041Y-66108572D01*
X129830041Y-66108572D02*
X129758612Y-65965715D01*
X129758612Y-65965715D02*
X129758612Y-65680001D01*
X129758612Y-65680001D02*
X129830041Y-65537144D01*
X129758612Y-64180001D02*
X130758612Y-64180001D01*
X129758612Y-64822858D02*
X130544326Y-64822858D01*
X130544326Y-64822858D02*
X130687184Y-64751429D01*
X130687184Y-64751429D02*
X130758612Y-64608572D01*
X130758612Y-64608572D02*
X130758612Y-64394286D01*
X130758612Y-64394286D02*
X130687184Y-64251429D01*
X130687184Y-64251429D02*
X130615755Y-64180001D01*
X130758612Y-63465715D02*
X129758612Y-63465715D01*
X129258612Y-63465715D02*
X129330041Y-63537143D01*
X129330041Y-63537143D02*
X129401469Y-63465715D01*
X129401469Y-63465715D02*
X129330041Y-63394286D01*
X129330041Y-63394286D02*
X129258612Y-63465715D01*
X129258612Y-63465715D02*
X129401469Y-63465715D01*
X129758612Y-62751429D02*
X130758612Y-62751429D01*
X129901469Y-62751429D02*
X129830041Y-62680000D01*
X129830041Y-62680000D02*
X129758612Y-62537143D01*
X129758612Y-62537143D02*
X129758612Y-62322857D01*
X129758612Y-62322857D02*
X129830041Y-62180000D01*
X129830041Y-62180000D02*
X129972898Y-62108572D01*
X129972898Y-62108572D02*
X130758612Y-62108572D01*
X130758612Y-61180000D02*
X130687184Y-61322857D01*
X130687184Y-61322857D02*
X130615755Y-61394286D01*
X130615755Y-61394286D02*
X130472898Y-61465714D01*
X130472898Y-61465714D02*
X130044326Y-61465714D01*
X130044326Y-61465714D02*
X129901469Y-61394286D01*
X129901469Y-61394286D02*
X129830041Y-61322857D01*
X129830041Y-61322857D02*
X129758612Y-61180000D01*
X129758612Y-61180000D02*
X129758612Y-60965714D01*
X129758612Y-60965714D02*
X129830041Y-60822857D01*
X129830041Y-60822857D02*
X129901469Y-60751429D01*
X129901469Y-60751429D02*
X130044326Y-60680000D01*
X130044326Y-60680000D02*
X130472898Y-60680000D01*
X130472898Y-60680000D02*
X130615755Y-60751429D01*
X130615755Y-60751429D02*
X130687184Y-60822857D01*
X130687184Y-60822857D02*
X130758612Y-60965714D01*
X130758612Y-60965714D02*
X130758612Y-61180000D01*
X130758612Y-58894286D02*
X129258612Y-58894286D01*
X129258612Y-58894286D02*
X130758612Y-58037143D01*
X130758612Y-58037143D02*
X129258612Y-58037143D01*
X130758612Y-56680000D02*
X129972898Y-56680000D01*
X129972898Y-56680000D02*
X129830041Y-56751428D01*
X129830041Y-56751428D02*
X129758612Y-56894285D01*
X129758612Y-56894285D02*
X129758612Y-57180000D01*
X129758612Y-57180000D02*
X129830041Y-57322857D01*
X130687184Y-56680000D02*
X130758612Y-56822857D01*
X130758612Y-56822857D02*
X130758612Y-57180000D01*
X130758612Y-57180000D02*
X130687184Y-57322857D01*
X130687184Y-57322857D02*
X130544326Y-57394285D01*
X130544326Y-57394285D02*
X130401469Y-57394285D01*
X130401469Y-57394285D02*
X130258612Y-57322857D01*
X130258612Y-57322857D02*
X130187184Y-57180000D01*
X130187184Y-57180000D02*
X130187184Y-56822857D01*
X130187184Y-56822857D02*
X130115755Y-56680000D01*
X129758612Y-55965714D02*
X130758612Y-55965714D01*
X129901469Y-55965714D02*
X129830041Y-55894285D01*
X129830041Y-55894285D02*
X129758612Y-55751428D01*
X129758612Y-55751428D02*
X129758612Y-55537142D01*
X129758612Y-55537142D02*
X129830041Y-55394285D01*
X129830041Y-55394285D02*
X129972898Y-55322857D01*
X129972898Y-55322857D02*
X130758612Y-55322857D01*
X130758612Y-54394285D02*
X130687184Y-54537142D01*
X130687184Y-54537142D02*
X130615755Y-54608571D01*
X130615755Y-54608571D02*
X130472898Y-54679999D01*
X130472898Y-54679999D02*
X130044326Y-54679999D01*
X130044326Y-54679999D02*
X129901469Y-54608571D01*
X129901469Y-54608571D02*
X129830041Y-54537142D01*
X129830041Y-54537142D02*
X129758612Y-54394285D01*
X129758612Y-54394285D02*
X129758612Y-54179999D01*
X129758612Y-54179999D02*
X129830041Y-54037142D01*
X129830041Y-54037142D02*
X129901469Y-53965714D01*
X129901469Y-53965714D02*
X130044326Y-53894285D01*
X130044326Y-53894285D02*
X130472898Y-53894285D01*
X130472898Y-53894285D02*
X130615755Y-53965714D01*
X130615755Y-53965714D02*
X130687184Y-54037142D01*
X130687184Y-54037142D02*
X130758612Y-54179999D01*
X130758612Y-54179999D02*
X130758612Y-54394285D01*
X132387814Y-66751427D02*
X132387814Y-66251427D01*
X133173528Y-66037141D02*
X133173528Y-66751427D01*
X133173528Y-66751427D02*
X131673528Y-66751427D01*
X131673528Y-66751427D02*
X131673528Y-66037141D01*
X133102100Y-65465712D02*
X133173528Y-65251427D01*
X133173528Y-65251427D02*
X133173528Y-64894284D01*
X133173528Y-64894284D02*
X133102100Y-64751427D01*
X133102100Y-64751427D02*
X133030671Y-64679998D01*
X133030671Y-64679998D02*
X132887814Y-64608569D01*
X132887814Y-64608569D02*
X132744957Y-64608569D01*
X132744957Y-64608569D02*
X132602100Y-64679998D01*
X132602100Y-64679998D02*
X132530671Y-64751427D01*
X132530671Y-64751427D02*
X132459242Y-64894284D01*
X132459242Y-64894284D02*
X132387814Y-65179998D01*
X132387814Y-65179998D02*
X132316385Y-65322855D01*
X132316385Y-65322855D02*
X132244957Y-65394284D01*
X132244957Y-65394284D02*
X132102100Y-65465712D01*
X132102100Y-65465712D02*
X131959242Y-65465712D01*
X131959242Y-65465712D02*
X131816385Y-65394284D01*
X131816385Y-65394284D02*
X131744957Y-65322855D01*
X131744957Y-65322855D02*
X131673528Y-65179998D01*
X131673528Y-65179998D02*
X131673528Y-64822855D01*
X131673528Y-64822855D02*
X131744957Y-64608569D01*
X133173528Y-63965713D02*
X131673528Y-63965713D01*
X131673528Y-63965713D02*
X131673528Y-63394284D01*
X131673528Y-63394284D02*
X131744957Y-63251427D01*
X131744957Y-63251427D02*
X131816385Y-63179998D01*
X131816385Y-63179998D02*
X131959242Y-63108570D01*
X131959242Y-63108570D02*
X132173528Y-63108570D01*
X132173528Y-63108570D02*
X132316385Y-63179998D01*
X132316385Y-63179998D02*
X132387814Y-63251427D01*
X132387814Y-63251427D02*
X132459242Y-63394284D01*
X132459242Y-63394284D02*
X132459242Y-63965713D01*
X131673528Y-62608570D02*
X131673528Y-61679998D01*
X131673528Y-61679998D02*
X132244957Y-62179998D01*
X132244957Y-62179998D02*
X132244957Y-61965713D01*
X132244957Y-61965713D02*
X132316385Y-61822856D01*
X132316385Y-61822856D02*
X132387814Y-61751427D01*
X132387814Y-61751427D02*
X132530671Y-61679998D01*
X132530671Y-61679998D02*
X132887814Y-61679998D01*
X132887814Y-61679998D02*
X133030671Y-61751427D01*
X133030671Y-61751427D02*
X133102100Y-61822856D01*
X133102100Y-61822856D02*
X133173528Y-61965713D01*
X133173528Y-61965713D02*
X133173528Y-62394284D01*
X133173528Y-62394284D02*
X133102100Y-62537141D01*
X133102100Y-62537141D02*
X133030671Y-62608570D01*
X131816385Y-61108570D02*
X131744957Y-61037142D01*
X131744957Y-61037142D02*
X131673528Y-60894285D01*
X131673528Y-60894285D02*
X131673528Y-60537142D01*
X131673528Y-60537142D02*
X131744957Y-60394285D01*
X131744957Y-60394285D02*
X131816385Y-60322856D01*
X131816385Y-60322856D02*
X131959242Y-60251427D01*
X131959242Y-60251427D02*
X132102100Y-60251427D01*
X132102100Y-60251427D02*
X132316385Y-60322856D01*
X132316385Y-60322856D02*
X133173528Y-61179999D01*
X133173528Y-61179999D02*
X133173528Y-60251427D01*
X132602100Y-59608571D02*
X132602100Y-58465714D01*
X133102100Y-57822856D02*
X133173528Y-57608571D01*
X133173528Y-57608571D02*
X133173528Y-57251428D01*
X133173528Y-57251428D02*
X133102100Y-57108571D01*
X133102100Y-57108571D02*
X133030671Y-57037142D01*
X133030671Y-57037142D02*
X132887814Y-56965713D01*
X132887814Y-56965713D02*
X132744957Y-56965713D01*
X132744957Y-56965713D02*
X132602100Y-57037142D01*
X132602100Y-57037142D02*
X132530671Y-57108571D01*
X132530671Y-57108571D02*
X132459242Y-57251428D01*
X132459242Y-57251428D02*
X132387814Y-57537142D01*
X132387814Y-57537142D02*
X132316385Y-57679999D01*
X132316385Y-57679999D02*
X132244957Y-57751428D01*
X132244957Y-57751428D02*
X132102100Y-57822856D01*
X132102100Y-57822856D02*
X131959242Y-57822856D01*
X131959242Y-57822856D02*
X131816385Y-57751428D01*
X131816385Y-57751428D02*
X131744957Y-57679999D01*
X131744957Y-57679999D02*
X131673528Y-57537142D01*
X131673528Y-57537142D02*
X131673528Y-57179999D01*
X131673528Y-57179999D02*
X131744957Y-56965713D01*
X131673528Y-56465714D02*
X131673528Y-55537142D01*
X131673528Y-55537142D02*
X132244957Y-56037142D01*
X132244957Y-56037142D02*
X132244957Y-55822857D01*
X132244957Y-55822857D02*
X132316385Y-55680000D01*
X132316385Y-55680000D02*
X132387814Y-55608571D01*
X132387814Y-55608571D02*
X132530671Y-55537142D01*
X132530671Y-55537142D02*
X132887814Y-55537142D01*
X132887814Y-55537142D02*
X133030671Y-55608571D01*
X133030671Y-55608571D02*
X133102100Y-55680000D01*
X133102100Y-55680000D02*
X133173528Y-55822857D01*
X133173528Y-55822857D02*
X133173528Y-56251428D01*
X133173528Y-56251428D02*
X133102100Y-56394285D01*
X133102100Y-56394285D02*
X133030671Y-56465714D01*
X135159873Y-66572855D02*
X135159873Y-65858570D01*
X135588444Y-66715712D02*
X134088444Y-66215712D01*
X134088444Y-66215712D02*
X135588444Y-65715712D01*
X134802730Y-64715713D02*
X134874158Y-64501427D01*
X134874158Y-64501427D02*
X134945587Y-64429998D01*
X134945587Y-64429998D02*
X135088444Y-64358570D01*
X135088444Y-64358570D02*
X135302730Y-64358570D01*
X135302730Y-64358570D02*
X135445587Y-64429998D01*
X135445587Y-64429998D02*
X135517016Y-64501427D01*
X135517016Y-64501427D02*
X135588444Y-64644284D01*
X135588444Y-64644284D02*
X135588444Y-65215713D01*
X135588444Y-65215713D02*
X134088444Y-65215713D01*
X134088444Y-65215713D02*
X134088444Y-64715713D01*
X134088444Y-64715713D02*
X134159873Y-64572856D01*
X134159873Y-64572856D02*
X134231301Y-64501427D01*
X134231301Y-64501427D02*
X134374158Y-64429998D01*
X134374158Y-64429998D02*
X134517016Y-64429998D01*
X134517016Y-64429998D02*
X134659873Y-64501427D01*
X134659873Y-64501427D02*
X134731301Y-64572856D01*
X134731301Y-64572856D02*
X134802730Y-64715713D01*
X134802730Y-64715713D02*
X134802730Y-65215713D01*
X134088444Y-63858570D02*
X135588444Y-62858570D01*
X134088444Y-62858570D02*
X135588444Y-63858570D01*
X134088444Y-62001427D02*
X134088444Y-61858570D01*
X134088444Y-61858570D02*
X134159873Y-61715713D01*
X134159873Y-61715713D02*
X134231301Y-61644285D01*
X134231301Y-61644285D02*
X134374158Y-61572856D01*
X134374158Y-61572856D02*
X134659873Y-61501427D01*
X134659873Y-61501427D02*
X135017016Y-61501427D01*
X135017016Y-61501427D02*
X135302730Y-61572856D01*
X135302730Y-61572856D02*
X135445587Y-61644285D01*
X135445587Y-61644285D02*
X135517016Y-61715713D01*
X135517016Y-61715713D02*
X135588444Y-61858570D01*
X135588444Y-61858570D02*
X135588444Y-62001427D01*
X135588444Y-62001427D02*
X135517016Y-62144285D01*
X135517016Y-62144285D02*
X135445587Y-62215713D01*
X135445587Y-62215713D02*
X135302730Y-62287142D01*
X135302730Y-62287142D02*
X135017016Y-62358570D01*
X135017016Y-62358570D02*
X134659873Y-62358570D01*
X134659873Y-62358570D02*
X134374158Y-62287142D01*
X134374158Y-62287142D02*
X134231301Y-62215713D01*
X134231301Y-62215713D02*
X134159873Y-62144285D01*
X134159873Y-62144285D02*
X134088444Y-62001427D01*
X134088444Y-60572856D02*
X134088444Y-60429999D01*
X134088444Y-60429999D02*
X134159873Y-60287142D01*
X134159873Y-60287142D02*
X134231301Y-60215714D01*
X134231301Y-60215714D02*
X134374158Y-60144285D01*
X134374158Y-60144285D02*
X134659873Y-60072856D01*
X134659873Y-60072856D02*
X135017016Y-60072856D01*
X135017016Y-60072856D02*
X135302730Y-60144285D01*
X135302730Y-60144285D02*
X135445587Y-60215714D01*
X135445587Y-60215714D02*
X135517016Y-60287142D01*
X135517016Y-60287142D02*
X135588444Y-60429999D01*
X135588444Y-60429999D02*
X135588444Y-60572856D01*
X135588444Y-60572856D02*
X135517016Y-60715714D01*
X135517016Y-60715714D02*
X135445587Y-60787142D01*
X135445587Y-60787142D02*
X135302730Y-60858571D01*
X135302730Y-60858571D02*
X135017016Y-60929999D01*
X135017016Y-60929999D02*
X134659873Y-60929999D01*
X134659873Y-60929999D02*
X134374158Y-60858571D01*
X134374158Y-60858571D02*
X134231301Y-60787142D01*
X134231301Y-60787142D02*
X134159873Y-60715714D01*
X134159873Y-60715714D02*
X134088444Y-60572856D01*
X134088444Y-59144285D02*
X134088444Y-59001428D01*
X134088444Y-59001428D02*
X134159873Y-58858571D01*
X134159873Y-58858571D02*
X134231301Y-58787143D01*
X134231301Y-58787143D02*
X134374158Y-58715714D01*
X134374158Y-58715714D02*
X134659873Y-58644285D01*
X134659873Y-58644285D02*
X135017016Y-58644285D01*
X135017016Y-58644285D02*
X135302730Y-58715714D01*
X135302730Y-58715714D02*
X135445587Y-58787143D01*
X135445587Y-58787143D02*
X135517016Y-58858571D01*
X135517016Y-58858571D02*
X135588444Y-59001428D01*
X135588444Y-59001428D02*
X135588444Y-59144285D01*
X135588444Y-59144285D02*
X135517016Y-59287143D01*
X135517016Y-59287143D02*
X135445587Y-59358571D01*
X135445587Y-59358571D02*
X135302730Y-59430000D01*
X135302730Y-59430000D02*
X135017016Y-59501428D01*
X135017016Y-59501428D02*
X134659873Y-59501428D01*
X134659873Y-59501428D02*
X134374158Y-59430000D01*
X134374158Y-59430000D02*
X134231301Y-59358571D01*
X134231301Y-59358571D02*
X134159873Y-59287143D01*
X134159873Y-59287143D02*
X134088444Y-59144285D01*
X135588444Y-57930000D02*
X135588444Y-57644286D01*
X135588444Y-57644286D02*
X135517016Y-57501429D01*
X135517016Y-57501429D02*
X135445587Y-57430000D01*
X135445587Y-57430000D02*
X135231301Y-57287143D01*
X135231301Y-57287143D02*
X134945587Y-57215714D01*
X134945587Y-57215714D02*
X134374158Y-57215714D01*
X134374158Y-57215714D02*
X134231301Y-57287143D01*
X134231301Y-57287143D02*
X134159873Y-57358572D01*
X134159873Y-57358572D02*
X134088444Y-57501429D01*
X134088444Y-57501429D02*
X134088444Y-57787143D01*
X134088444Y-57787143D02*
X134159873Y-57930000D01*
X134159873Y-57930000D02*
X134231301Y-58001429D01*
X134231301Y-58001429D02*
X134374158Y-58072857D01*
X134374158Y-58072857D02*
X134731301Y-58072857D01*
X134731301Y-58072857D02*
X134874158Y-58001429D01*
X134874158Y-58001429D02*
X134945587Y-57930000D01*
X134945587Y-57930000D02*
X135017016Y-57787143D01*
X135017016Y-57787143D02*
X135017016Y-57501429D01*
X135017016Y-57501429D02*
X134945587Y-57358572D01*
X134945587Y-57358572D02*
X134874158Y-57287143D01*
X134874158Y-57287143D02*
X134731301Y-57215714D01*
X134231301Y-56644286D02*
X134159873Y-56572858D01*
X134159873Y-56572858D02*
X134088444Y-56430001D01*
X134088444Y-56430001D02*
X134088444Y-56072858D01*
X134088444Y-56072858D02*
X134159873Y-55930001D01*
X134159873Y-55930001D02*
X134231301Y-55858572D01*
X134231301Y-55858572D02*
X134374158Y-55787143D01*
X134374158Y-55787143D02*
X134517016Y-55787143D01*
X134517016Y-55787143D02*
X134731301Y-55858572D01*
X134731301Y-55858572D02*
X135588444Y-56715715D01*
X135588444Y-56715715D02*
X135588444Y-55787143D01*
X112889047Y-72142219D02*
X112412857Y-72142219D01*
X112412857Y-72142219D02*
X112365238Y-72618409D01*
X112365238Y-72618409D02*
X112412857Y-72570790D01*
X112412857Y-72570790D02*
X112508095Y-72523171D01*
X112508095Y-72523171D02*
X112746190Y-72523171D01*
X112746190Y-72523171D02*
X112841428Y-72570790D01*
X112841428Y-72570790D02*
X112889047Y-72618409D01*
X112889047Y-72618409D02*
X112936666Y-72713647D01*
X112936666Y-72713647D02*
X112936666Y-72951742D01*
X112936666Y-72951742D02*
X112889047Y-73046980D01*
X112889047Y-73046980D02*
X112841428Y-73094600D01*
X112841428Y-73094600D02*
X112746190Y-73142219D01*
X112746190Y-73142219D02*
X112508095Y-73142219D01*
X112508095Y-73142219D02*
X112412857Y-73094600D01*
X112412857Y-73094600D02*
X112365238Y-73046980D01*
X113365238Y-73046980D02*
X113412857Y-73094600D01*
X113412857Y-73094600D02*
X113365238Y-73142219D01*
X113365238Y-73142219D02*
X113317619Y-73094600D01*
X113317619Y-73094600D02*
X113365238Y-73046980D01*
X113365238Y-73046980D02*
X113365238Y-73142219D01*
X114269999Y-72142219D02*
X114079523Y-72142219D01*
X114079523Y-72142219D02*
X113984285Y-72189838D01*
X113984285Y-72189838D02*
X113936666Y-72237457D01*
X113936666Y-72237457D02*
X113841428Y-72380314D01*
X113841428Y-72380314D02*
X113793809Y-72570790D01*
X113793809Y-72570790D02*
X113793809Y-72951742D01*
X113793809Y-72951742D02*
X113841428Y-73046980D01*
X113841428Y-73046980D02*
X113889047Y-73094600D01*
X113889047Y-73094600D02*
X113984285Y-73142219D01*
X113984285Y-73142219D02*
X114174761Y-73142219D01*
X114174761Y-73142219D02*
X114269999Y-73094600D01*
X114269999Y-73094600D02*
X114317618Y-73046980D01*
X114317618Y-73046980D02*
X114365237Y-72951742D01*
X114365237Y-72951742D02*
X114365237Y-72713647D01*
X114365237Y-72713647D02*
X114317618Y-72618409D01*
X114317618Y-72618409D02*
X114269999Y-72570790D01*
X114269999Y-72570790D02*
X114174761Y-72523171D01*
X114174761Y-72523171D02*
X113984285Y-72523171D01*
X113984285Y-72523171D02*
X113889047Y-72570790D01*
X113889047Y-72570790D02*
X113841428Y-72618409D01*
X113841428Y-72618409D02*
X113793809Y-72713647D01*
X114793809Y-73142219D02*
X114793809Y-72142219D01*
X114889047Y-72761266D02*
X115174761Y-73142219D01*
X115174761Y-72475552D02*
X114793809Y-72856504D01*
X106064761Y-73092219D02*
X105493333Y-73092219D01*
X105779047Y-73092219D02*
X105779047Y-72092219D01*
X105779047Y-72092219D02*
X105683809Y-72235076D01*
X105683809Y-72235076D02*
X105588571Y-72330314D01*
X105588571Y-72330314D02*
X105493333Y-72377933D01*
X106683809Y-72092219D02*
X106779047Y-72092219D01*
X106779047Y-72092219D02*
X106874285Y-72139838D01*
X106874285Y-72139838D02*
X106921904Y-72187457D01*
X106921904Y-72187457D02*
X106969523Y-72282695D01*
X106969523Y-72282695D02*
X107017142Y-72473171D01*
X107017142Y-72473171D02*
X107017142Y-72711266D01*
X107017142Y-72711266D02*
X106969523Y-72901742D01*
X106969523Y-72901742D02*
X106921904Y-72996980D01*
X106921904Y-72996980D02*
X106874285Y-73044600D01*
X106874285Y-73044600D02*
X106779047Y-73092219D01*
X106779047Y-73092219D02*
X106683809Y-73092219D01*
X106683809Y-73092219D02*
X106588571Y-73044600D01*
X106588571Y-73044600D02*
X106540952Y-72996980D01*
X106540952Y-72996980D02*
X106493333Y-72901742D01*
X106493333Y-72901742D02*
X106445714Y-72711266D01*
X106445714Y-72711266D02*
X106445714Y-72473171D01*
X106445714Y-72473171D02*
X106493333Y-72282695D01*
X106493333Y-72282695D02*
X106540952Y-72187457D01*
X106540952Y-72187457D02*
X106588571Y-72139838D01*
X106588571Y-72139838D02*
X106683809Y-72092219D01*
X107445714Y-73092219D02*
X107445714Y-72092219D01*
X107540952Y-72711266D02*
X107826666Y-73092219D01*
X107826666Y-72425552D02*
X107445714Y-72806504D01*
X98598095Y-77169838D02*
X98502857Y-77122219D01*
X98502857Y-77122219D02*
X98360000Y-77122219D01*
X98360000Y-77122219D02*
X98217143Y-77169838D01*
X98217143Y-77169838D02*
X98121905Y-77265076D01*
X98121905Y-77265076D02*
X98074286Y-77360314D01*
X98074286Y-77360314D02*
X98026667Y-77550790D01*
X98026667Y-77550790D02*
X98026667Y-77693647D01*
X98026667Y-77693647D02*
X98074286Y-77884123D01*
X98074286Y-77884123D02*
X98121905Y-77979361D01*
X98121905Y-77979361D02*
X98217143Y-78074600D01*
X98217143Y-78074600D02*
X98360000Y-78122219D01*
X98360000Y-78122219D02*
X98455238Y-78122219D01*
X98455238Y-78122219D02*
X98598095Y-78074600D01*
X98598095Y-78074600D02*
X98645714Y-78026980D01*
X98645714Y-78026980D02*
X98645714Y-77693647D01*
X98645714Y-77693647D02*
X98455238Y-77693647D01*
X99074286Y-78122219D02*
X99074286Y-77122219D01*
X99074286Y-77122219D02*
X99645714Y-78122219D01*
X99645714Y-78122219D02*
X99645714Y-77122219D01*
X100121905Y-78122219D02*
X100121905Y-77122219D01*
X100121905Y-77122219D02*
X100360000Y-77122219D01*
X100360000Y-77122219D02*
X100502857Y-77169838D01*
X100502857Y-77169838D02*
X100598095Y-77265076D01*
X100598095Y-77265076D02*
X100645714Y-77360314D01*
X100645714Y-77360314D02*
X100693333Y-77550790D01*
X100693333Y-77550790D02*
X100693333Y-77693647D01*
X100693333Y-77693647D02*
X100645714Y-77884123D01*
X100645714Y-77884123D02*
X100598095Y-77979361D01*
X100598095Y-77979361D02*
X100502857Y-78074600D01*
X100502857Y-78074600D02*
X100360000Y-78122219D01*
X100360000Y-78122219D02*
X100121905Y-78122219D01*
X108944762Y-77122219D02*
X109278095Y-78122219D01*
X109278095Y-78122219D02*
X109611428Y-77122219D01*
X109944762Y-78122219D02*
X109944762Y-77122219D01*
X110420952Y-78122219D02*
X110420952Y-77122219D01*
X110420952Y-77122219D02*
X110992380Y-78122219D01*
X110992380Y-78122219D02*
X110992380Y-77122219D01*
D11*
X80128095Y-22797419D02*
X80128095Y-23606942D01*
X80128095Y-23606942D02*
X80175714Y-23702180D01*
X80175714Y-23702180D02*
X80223333Y-23749800D01*
X80223333Y-23749800D02*
X80318571Y-23797419D01*
X80318571Y-23797419D02*
X80509047Y-23797419D01*
X80509047Y-23797419D02*
X80604285Y-23749800D01*
X80604285Y-23749800D02*
X80651904Y-23702180D01*
X80651904Y-23702180D02*
X80699523Y-23606942D01*
X80699523Y-23606942D02*
X80699523Y-22797419D01*
X81699523Y-23797419D02*
X81128095Y-23797419D01*
X81413809Y-23797419D02*
X81413809Y-22797419D01*
X81413809Y-22797419D02*
X81318571Y-22940276D01*
X81318571Y-22940276D02*
X81223333Y-23035514D01*
X81223333Y-23035514D02*
X81128095Y-23083133D01*
D12*
%TO.C,R1*%
X106897064Y-47265000D02*
X106442936Y-47265000D01*
X106897064Y-45795000D02*
X106442936Y-45795000D01*
%TO.C,R4*%
X106897064Y-49805000D02*
X106442936Y-49805000D01*
X106897064Y-48335000D02*
X106442936Y-48335000D01*
%TO.C,R6*%
X106897064Y-52355000D02*
X106442936Y-52355000D01*
X106897064Y-50885000D02*
X106442936Y-50885000D01*
%TO.C,R8*%
X106897064Y-54895000D02*
X106442936Y-54895000D01*
X106897064Y-53425000D02*
X106442936Y-53425000D01*
%TO.C,R10*%
X106897064Y-57435000D02*
X106442936Y-57435000D01*
X106897064Y-55965000D02*
X106442936Y-55965000D01*
%TO.C,R12*%
X106897064Y-59955000D02*
X106442936Y-59955000D01*
X106897064Y-58485000D02*
X106442936Y-58485000D01*
%TO.C,R14*%
X106897064Y-63289786D02*
X106442936Y-63289786D01*
X106897064Y-61819786D02*
X106442936Y-61819786D01*
%TO.C,R16*%
X106897064Y-65849786D02*
X106442936Y-65849786D01*
X106897064Y-64379786D02*
X106442936Y-64379786D01*
%TO.C,R18*%
X106897064Y-68379786D02*
X106442936Y-68379786D01*
X106897064Y-66909786D02*
X106442936Y-66909786D01*
%TO.C,R20*%
X106897064Y-70919786D02*
X106442936Y-70919786D01*
X106897064Y-69449786D02*
X106442936Y-69449786D01*
%TO.C,R2*%
X113977064Y-47265000D02*
X113522936Y-47265000D01*
X113977064Y-45795000D02*
X113522936Y-45795000D01*
%TO.C,R19*%
X113977064Y-70929786D02*
X113522936Y-70929786D01*
X113977064Y-69459786D02*
X113522936Y-69459786D01*
%TO.C,R17*%
X113977064Y-68399786D02*
X113522936Y-68399786D01*
X113977064Y-66929786D02*
X113522936Y-66929786D01*
%TO.C,R15*%
X113977064Y-65859786D02*
X113522936Y-65859786D01*
X113977064Y-64389786D02*
X113522936Y-64389786D01*
%TO.C,R13*%
X113977064Y-63299786D02*
X113522936Y-63299786D01*
X113977064Y-61829786D02*
X113522936Y-61829786D01*
%TO.C,R11*%
X113977064Y-59955000D02*
X113522936Y-59955000D01*
X113977064Y-58485000D02*
X113522936Y-58485000D01*
%TO.C,R9*%
X113977064Y-57435000D02*
X113522936Y-57435000D01*
X113977064Y-55965000D02*
X113522936Y-55965000D01*
%TO.C,R7*%
X113977064Y-54895000D02*
X113522936Y-54895000D01*
X113977064Y-53425000D02*
X113522936Y-53425000D01*
%TO.C,R5*%
X113977064Y-52325000D02*
X113522936Y-52325000D01*
X113977064Y-50855000D02*
X113522936Y-50855000D01*
%TO.C,R3*%
X113977064Y-49815000D02*
X113522936Y-49815000D01*
X113977064Y-48345000D02*
X113522936Y-48345000D01*
%TD*%
M02*
