%TF.GenerationSoftware,KiCad,Pcbnew,9.0.4*%
%TF.CreationDate,2025-12-29T18:36:19-08:00*%
%TF.ProjectId,LS-70B-Adapter,4c532d37-3042-42d4-9164-61707465722e,rev?*%
%TF.SameCoordinates,Original*%
%TF.FileFunction,Paste,Top*%
%TF.FilePolarity,Positive*%
%FSLAX46Y46*%
G04 Gerber Fmt 4.6, Leading zero omitted, Abs format (unit mm)*
G04 Created by KiCad (PCBNEW 9.0.4) date 2025-12-29 18:36:19*
%MOMM*%
%LPD*%
G01*
G04 APERTURE LIST*
G04 Aperture macros list*
%AMRoundRect*
0 Rectangle with rounded corners*
0 $1 Rounding radius*
0 $2 $3 $4 $5 $6 $7 $8 $9 X,Y pos of 4 corners*
0 Add a 4 corners polygon primitive as box body*
4,1,4,$2,$3,$4,$5,$6,$7,$8,$9,$2,$3,0*
0 Add four circle primitives for the rounded corners*
1,1,$1+$1,$2,$3*
1,1,$1+$1,$4,$5*
1,1,$1+$1,$6,$7*
1,1,$1+$1,$8,$9*
0 Add four rect primitives between the rounded corners*
20,1,$1+$1,$2,$3,$4,$5,0*
20,1,$1+$1,$4,$5,$6,$7,0*
20,1,$1+$1,$6,$7,$8,$9,0*
20,1,$1+$1,$8,$9,$2,$3,0*%
G04 Aperture macros list end*
%ADD10RoundRect,0.250000X0.350000X0.450000X-0.350000X0.450000X-0.350000X-0.450000X0.350000X-0.450000X0*%
%ADD11R,3.000000X1.500000*%
%ADD12R,5.000000X3.000000*%
G04 APERTURE END LIST*
D10*
%TO.C,R1*%
X107670000Y-46530000D03*
X105670000Y-46530000D03*
%TD*%
%TO.C,R4*%
X107670000Y-49070000D03*
X105670000Y-49070000D03*
%TD*%
%TO.C,R6*%
X107670000Y-51620000D03*
X105670000Y-51620000D03*
%TD*%
%TO.C,R8*%
X107670000Y-54160000D03*
X105670000Y-54160000D03*
%TD*%
%TO.C,R10*%
X107670000Y-56700000D03*
X105670000Y-56700000D03*
%TD*%
%TO.C,R12*%
X107670000Y-59220000D03*
X105670000Y-59220000D03*
%TD*%
%TO.C,R14*%
X107670000Y-62554786D03*
X105670000Y-62554786D03*
%TD*%
%TO.C,R16*%
X107670000Y-65114786D03*
X105670000Y-65114786D03*
%TD*%
%TO.C,R18*%
X107670000Y-67644786D03*
X105670000Y-67644786D03*
%TD*%
%TO.C,R20*%
X107670000Y-70184786D03*
X105670000Y-70184786D03*
%TD*%
D11*
%TO.C,U1*%
X123007571Y-48444313D03*
X123007571Y-50984313D03*
X123007571Y-53524313D03*
X123007571Y-56064313D03*
X123007571Y-58604313D03*
X123007571Y-61144313D03*
X123007571Y-63684313D03*
X123007571Y-66224313D03*
X123007571Y-73844313D03*
X123007571Y-76384313D03*
X142047572Y-63684313D03*
X142047572Y-66224313D03*
X142047572Y-68764313D03*
D12*
X104540000Y-77640000D03*
X115040000Y-77640000D03*
%TD*%
D10*
%TO.C,R2*%
X114750000Y-46530000D03*
X112750000Y-46530000D03*
%TD*%
%TO.C,R19*%
X114750000Y-70194786D03*
X112750000Y-70194786D03*
%TD*%
%TO.C,R17*%
X114750000Y-67664786D03*
X112750000Y-67664786D03*
%TD*%
%TO.C,R15*%
X114750000Y-65124786D03*
X112750000Y-65124786D03*
%TD*%
%TO.C,R13*%
X114750000Y-62564786D03*
X112750000Y-62564786D03*
%TD*%
%TO.C,R11*%
X114750000Y-59220000D03*
X112750000Y-59220000D03*
%TD*%
%TO.C,R9*%
X114750000Y-56700000D03*
X112750000Y-56700000D03*
%TD*%
%TO.C,R7*%
X114750000Y-54160000D03*
X112750000Y-54160000D03*
%TD*%
%TO.C,R5*%
X114750000Y-51590000D03*
X112750000Y-51590000D03*
%TD*%
%TO.C,R3*%
X114750000Y-49080000D03*
X112750000Y-49080000D03*
%TD*%
M02*
