%TF.GenerationSoftware,KiCad,Pcbnew,9.0.4*%
%TF.CreationDate,2025-12-29T18:36:19-08:00*%
%TF.ProjectId,LS-70B-Adapter,4c532d37-3042-42d4-9164-61707465722e,rev?*%
%TF.SameCoordinates,Original*%
%TF.FileFunction,Copper,L1,Top*%
%TF.FilePolarity,Positive*%
%FSLAX46Y46*%
G04 Gerber Fmt 4.6, Leading zero omitted, Abs format (unit mm)*
G04 Created by KiCad (PCBNEW 9.0.4) date 2025-12-29 18:36:19*
%MOMM*%
%LPD*%
G01*
G04 APERTURE LIST*
G04 Aperture macros list*
%AMRoundRect*
0 Rectangle with rounded corners*
0 $1 Rounding radius*
0 $2 $3 $4 $5 $6 $7 $8 $9 X,Y pos of 4 corners*
0 Add a 4 corners polygon primitive as box body*
4,1,4,$2,$3,$4,$5,$6,$7,$8,$9,$2,$3,0*
0 Add four circle primitives for the rounded corners*
1,1,$1+$1,$2,$3*
1,1,$1+$1,$4,$5*
1,1,$1+$1,$6,$7*
1,1,$1+$1,$8,$9*
0 Add four rect primitives between the rounded corners*
20,1,$1+$1,$2,$3,$4,$5,0*
20,1,$1+$1,$4,$5,$6,$7,0*
20,1,$1+$1,$6,$7,$8,$9,0*
20,1,$1+$1,$8,$9,$2,$3,0*%
G04 Aperture macros list end*
%TA.AperFunction,SMDPad,CuDef*%
%ADD10RoundRect,0.250000X0.350000X0.450000X-0.350000X0.450000X-0.350000X-0.450000X0.350000X-0.450000X0*%
%TD*%
%TA.AperFunction,ComponentPad*%
%ADD11O,3.000000X1.500000*%
%TD*%
%TA.AperFunction,SMDPad,CuDef*%
%ADD12R,3.000000X1.500000*%
%TD*%
%TA.AperFunction,SMDPad,CuDef*%
%ADD13R,5.000000X3.000000*%
%TD*%
%TA.AperFunction,Conductor*%
%ADD14C,0.200000*%
%TD*%
G04 APERTURE END LIST*
D10*
%TO.P,R1,1*%
%TO.N,A0*%
X107670000Y-46530000D03*
%TO.P,R1,2*%
%TO.N,LCD_2*%
X105670000Y-46530000D03*
%TD*%
%TO.P,R4,1*%
%TO.N,A1*%
X107670000Y-49070000D03*
%TO.P,R4,2*%
%TO.N,LCD_3*%
X105670000Y-49070000D03*
%TD*%
%TO.P,R6,1*%
%TO.N,A2*%
X107670000Y-51620000D03*
%TO.P,R6,2*%
%TO.N,LCD_4*%
X105670000Y-51620000D03*
%TD*%
%TO.P,R8,1*%
%TO.N,A3*%
X107670000Y-54160000D03*
%TO.P,R8,2*%
%TO.N,LCD_5*%
X105670000Y-54160000D03*
%TD*%
%TO.P,R10,1*%
%TO.N,A4*%
X107670000Y-56700000D03*
%TO.P,R10,2*%
%TO.N,LCD_6*%
X105670000Y-56700000D03*
%TD*%
%TO.P,R12,1*%
%TO.N,A5*%
X107670000Y-59220000D03*
%TO.P,R12,2*%
%TO.N,LCD_7*%
X105670000Y-59220000D03*
%TD*%
%TO.P,R14,1*%
%TO.N,A6*%
X107670000Y-62554786D03*
%TO.P,R14,2*%
%TO.N,LCD_9*%
X105670000Y-62554786D03*
%TD*%
%TO.P,R16,1*%
%TO.N,A7*%
X107670000Y-65114786D03*
%TO.P,R16,2*%
%TO.N,LCD_10*%
X105670000Y-65114786D03*
%TD*%
%TO.P,R18,1*%
%TO.N,D3*%
X107670000Y-67644786D03*
%TO.P,R18,2*%
%TO.N,LCD_11*%
X105670000Y-67644786D03*
%TD*%
%TO.P,R20,1*%
%TO.N,D2*%
X107670000Y-70184786D03*
%TO.P,R20,2*%
%TO.N,LCD_12*%
X105670000Y-70184786D03*
%TD*%
D11*
%TO.P,U1,14,LCD_2*%
%TO.N,LCD_2*%
X97290000Y-46530000D03*
D12*
%TO.P,U1,1,A0*%
%TO.N,A0*%
X123007571Y-48444313D03*
%TO.P,U1,2,A1*%
%TO.N,A1*%
X123007571Y-50984313D03*
%TO.P,U1,3,A2*%
%TO.N,A2*%
X123007571Y-53524313D03*
%TO.P,U1,4,A3*%
%TO.N,A3*%
X123007571Y-56064313D03*
%TO.P,U1,5,A4*%
%TO.N,A4*%
X123007571Y-58604313D03*
%TO.P,U1,6,A5*%
%TO.N,A5*%
X123007571Y-61144313D03*
%TO.P,U1,7,A6*%
%TO.N,A6*%
X123007571Y-63684313D03*
%TO.P,U1,8,A7*%
%TO.N,A7*%
X123007571Y-66224313D03*
%TO.P,U1,9,GND*%
%TO.N,GND*%
X123007571Y-73844313D03*
%TO.P,U1,10,VIN*%
%TO.N,+9V*%
X123007571Y-76384313D03*
%TO.P,U1,11,D3*%
%TO.N,D3*%
X142047572Y-63684313D03*
%TO.P,U1,12,D2*%
%TO.N,D2*%
X142047572Y-66224313D03*
%TO.P,U1,13,GND*%
%TO.N,GND*%
X142047572Y-68764313D03*
D11*
%TO.P,U1,15,LCD_3*%
%TO.N,LCD_3*%
X97290000Y-49070000D03*
%TO.P,U1,16,LCD_4*%
%TO.N,LCD_4*%
X97290000Y-51610000D03*
%TO.P,U1,17,LCD_5*%
%TO.N,LCD_5*%
X97290000Y-54150000D03*
%TO.P,U1,18,LCD_6*%
%TO.N,LCD_6*%
X97290000Y-56690000D03*
%TO.P,U1,19,LCD_7*%
%TO.N,LCD_7*%
X97290000Y-59230000D03*
%TO.P,U1,20,LCD_9*%
%TO.N,LCD_9*%
X97290000Y-66850000D03*
%TO.P,U1,21,LCD_10*%
%TO.N,LCD_10*%
X97290000Y-69390000D03*
%TO.P,U1,22,LCD_11*%
%TO.N,LCD_11*%
X97290000Y-71930000D03*
%TO.P,U1,23,LCD_12*%
%TO.N,LCD_12*%
X97290000Y-74470000D03*
D13*
%TO.P,U1,24,GND*%
%TO.N,GND*%
X104540000Y-77640000D03*
%TO.P,U1,25,9VIN*%
%TO.N,+9V*%
X115040000Y-77640000D03*
%TD*%
D10*
%TO.P,R2,1*%
%TO.N,GND*%
X114750000Y-46530000D03*
%TO.P,R2,2*%
%TO.N,A0*%
X112750000Y-46530000D03*
%TD*%
%TO.P,R19,1*%
%TO.N,GND*%
X114750000Y-70194786D03*
%TO.P,R19,2*%
%TO.N,D2*%
X112750000Y-70194786D03*
%TD*%
%TO.P,R17,1*%
%TO.N,GND*%
X114750000Y-67664786D03*
%TO.P,R17,2*%
%TO.N,D3*%
X112750000Y-67664786D03*
%TD*%
%TO.P,R15,1*%
%TO.N,GND*%
X114750000Y-65124786D03*
%TO.P,R15,2*%
%TO.N,A7*%
X112750000Y-65124786D03*
%TD*%
%TO.P,R13,1*%
%TO.N,GND*%
X114750000Y-62564786D03*
%TO.P,R13,2*%
%TO.N,A6*%
X112750000Y-62564786D03*
%TD*%
%TO.P,R11,1*%
%TO.N,GND*%
X114750000Y-59220000D03*
%TO.P,R11,2*%
%TO.N,A5*%
X112750000Y-59220000D03*
%TD*%
%TO.P,R9,1*%
%TO.N,GND*%
X114750000Y-56700000D03*
%TO.P,R9,2*%
%TO.N,A4*%
X112750000Y-56700000D03*
%TD*%
%TO.P,R7,1*%
%TO.N,GND*%
X114750000Y-54160000D03*
%TO.P,R7,2*%
%TO.N,A3*%
X112750000Y-54160000D03*
%TD*%
%TO.P,R5,1*%
%TO.N,GND*%
X114750000Y-51590000D03*
%TO.P,R5,2*%
%TO.N,A2*%
X112750000Y-51590000D03*
%TD*%
%TO.P,R3,1*%
%TO.N,GND*%
X114750000Y-49080000D03*
%TO.P,R3,2*%
%TO.N,A1*%
X112750000Y-49080000D03*
%TD*%
D14*
%TO.N,+9V*%
X123007571Y-76384313D02*
X116295687Y-76384313D01*
X116295687Y-76384313D02*
X115040000Y-77640000D01*
%TO.N,D2*%
X109640000Y-70184786D02*
X111085214Y-71630000D01*
X111085214Y-71630000D02*
X133510000Y-71630000D01*
X133510000Y-71630000D02*
X138915687Y-66224313D01*
X138915687Y-66224313D02*
X142047572Y-66224313D01*
%TO.N,D3*%
X109820000Y-67644786D02*
X111115214Y-68940000D01*
X111115214Y-68940000D02*
X128810000Y-68940000D01*
X128810000Y-68940000D02*
X134065687Y-63684313D01*
X134065687Y-63684313D02*
X142047572Y-63684313D01*
%TO.N,D2*%
X109640000Y-70184786D02*
X109830000Y-70184786D01*
%TO.N,A7*%
X110050000Y-65114786D02*
X111325214Y-66390000D01*
X111325214Y-66390000D02*
X122841884Y-66390000D01*
X122841884Y-66390000D02*
X123007571Y-66224313D01*
%TO.N,A6*%
X109930000Y-62554786D02*
X111185214Y-63810000D01*
X111185214Y-63810000D02*
X122881884Y-63810000D01*
X122881884Y-63810000D02*
X123007571Y-63684313D01*
%TO.N,A7*%
X110050000Y-65114786D02*
X112740000Y-65114786D01*
%TO.N,A6*%
X109930000Y-62554786D02*
X112740000Y-62554786D01*
%TO.N,LCD_12*%
X105670000Y-70184786D02*
X102176214Y-70184786D01*
X102176214Y-70184786D02*
X97891000Y-74470000D01*
%TO.N,LCD_11*%
X105670000Y-67644786D02*
X102176214Y-67644786D01*
X102176214Y-67644786D02*
X97891000Y-71930000D01*
%TO.N,LCD_10*%
X105670000Y-65114786D02*
X102166214Y-65114786D01*
X102166214Y-65114786D02*
X97891000Y-69390000D01*
%TO.N,LCD_9*%
X105670000Y-62554786D02*
X102186214Y-62554786D01*
X102186214Y-62554786D02*
X97901000Y-66840000D01*
%TO.N,D2*%
X107670000Y-70184786D02*
X109640000Y-70184786D01*
%TO.N,D3*%
X109820000Y-67644786D02*
X112730000Y-67644786D01*
%TO.N,A7*%
X109820000Y-65114786D02*
X110050000Y-65114786D01*
%TO.N,A6*%
X109720000Y-62554786D02*
X109930000Y-62554786D01*
%TO.N,A5*%
X109960000Y-59220000D02*
X111340000Y-60600000D01*
X111340000Y-60600000D02*
X122463258Y-60600000D01*
X122463258Y-60600000D02*
X123007571Y-61144313D01*
%TO.N,A4*%
X109690000Y-56700000D02*
X111040000Y-58050000D01*
X111040000Y-58050000D02*
X122453258Y-58050000D01*
X122453258Y-58050000D02*
X123007571Y-58604313D01*
%TO.N,A3*%
X109670000Y-54160000D02*
X111050000Y-55540000D01*
X111050000Y-55540000D02*
X122483258Y-55540000D01*
X122483258Y-55540000D02*
X123007571Y-56064313D01*
%TO.N,A2*%
X109550000Y-51620000D02*
X110930000Y-53000000D01*
X122483258Y-53000000D02*
X123007571Y-53524313D01*
X110930000Y-53000000D02*
X122483258Y-53000000D01*
%TO.N,A0*%
X109600000Y-46530000D02*
X110990000Y-47920000D01*
X110990000Y-47920000D02*
X122483258Y-47920000D01*
X122483258Y-47920000D02*
X123007571Y-48444313D01*
%TO.N,A1*%
X109570000Y-49070000D02*
X110960000Y-50460000D01*
X110960000Y-50460000D02*
X122483258Y-50460000D01*
X122483258Y-50460000D02*
X123007571Y-50984313D01*
%TO.N,A5*%
X109960000Y-59220000D02*
X112750000Y-59220000D01*
%TO.N,A4*%
X109690000Y-56700000D02*
X112750000Y-56700000D01*
%TO.N,A3*%
X109670000Y-54160000D02*
X112750000Y-54160000D01*
%TO.N,A0*%
X109600000Y-46530000D02*
X109720000Y-46530000D01*
%TO.N,A2*%
X109550000Y-51620000D02*
X112720000Y-51620000D01*
%TO.N,A1*%
X109570000Y-49070000D02*
X112740000Y-49070000D01*
X122257571Y-50984313D02*
X123007571Y-50984313D01*
%TO.N,A0*%
X109720000Y-46530000D02*
X112750000Y-46530000D01*
%TO.N,D2*%
X109830000Y-70184786D02*
X112740000Y-70184786D01*
X112740000Y-70184786D02*
X112750000Y-70194786D01*
%TO.N,D3*%
X107670000Y-67644786D02*
X109820000Y-67644786D01*
X112730000Y-67644786D02*
X112750000Y-67664786D01*
%TO.N,A7*%
X107670000Y-65114786D02*
X109820000Y-65114786D01*
X112740000Y-65114786D02*
X112750000Y-65124786D01*
%TO.N,A6*%
X107670000Y-62554786D02*
X109720000Y-62554786D01*
X112740000Y-62554786D02*
X112750000Y-62564786D01*
%TO.N,A5*%
X107670000Y-59220000D02*
X109960000Y-59220000D01*
%TO.N,A4*%
X107670000Y-56700000D02*
X109690000Y-56700000D01*
%TO.N,A3*%
X107670000Y-54160000D02*
X109670000Y-54160000D01*
%TO.N,A2*%
X107670000Y-51620000D02*
X109550000Y-51620000D01*
X112720000Y-51620000D02*
X112750000Y-51590000D01*
%TO.N,A1*%
X107670000Y-49070000D02*
X109570000Y-49070000D01*
X112740000Y-49070000D02*
X112750000Y-49080000D01*
%TO.N,A0*%
X107670000Y-46530000D02*
X109600000Y-46530000D01*
%TO.N,LCD_10*%
X97901000Y-69400000D02*
X97891000Y-69390000D01*
%TO.N,LCD_7*%
X105670000Y-59220000D02*
X97901000Y-59220000D01*
X97901000Y-59220000D02*
X97891000Y-59230000D01*
%TO.N,LCD_6*%
X105670000Y-56700000D02*
X97901000Y-56700000D01*
X97901000Y-56700000D02*
X97891000Y-56690000D01*
%TO.N,LCD_5*%
X105670000Y-54160000D02*
X97901000Y-54160000D01*
X97901000Y-54160000D02*
X97891000Y-54150000D01*
%TO.N,LCD_4*%
X105670000Y-51620000D02*
X97901000Y-51620000D01*
X97901000Y-51620000D02*
X97891000Y-51610000D01*
%TO.N,LCD_3*%
X105670000Y-49070000D02*
X97891000Y-49070000D01*
%TO.N,LCD_2*%
X105670000Y-46530000D02*
X97891000Y-46530000D01*
%TD*%
%TA.AperFunction,Conductor*%
%TO.N,GND*%
G36*
X146860111Y-44510185D02*
G01*
X146905866Y-44562989D01*
X146917072Y-44614500D01*
X146917072Y-78925500D01*
X146897387Y-78992539D01*
X146844583Y-79038294D01*
X146793072Y-79049500D01*
X117914500Y-79049500D01*
X117847461Y-79029815D01*
X117801706Y-78977011D01*
X117790500Y-78925500D01*
X117790500Y-76858813D01*
X117810185Y-76791774D01*
X117862989Y-76746019D01*
X117914500Y-76734813D01*
X121133071Y-76734813D01*
X121200110Y-76754498D01*
X121245865Y-76807302D01*
X121257071Y-76858813D01*
X121257071Y-77158991D01*
X121271603Y-77232048D01*
X121271604Y-77232052D01*
X121271605Y-77232053D01*
X121326970Y-77314914D01*
X121409831Y-77370279D01*
X121409835Y-77370280D01*
X121482892Y-77384812D01*
X121482895Y-77384813D01*
X121482897Y-77384813D01*
X124532247Y-77384813D01*
X124532248Y-77384812D01*
X124605311Y-77370279D01*
X124688172Y-77314914D01*
X124743537Y-77232053D01*
X124758071Y-77158987D01*
X124758071Y-75609639D01*
X124758071Y-75609636D01*
X124758070Y-75609634D01*
X124743538Y-75536577D01*
X124743537Y-75536573D01*
X124737449Y-75527461D01*
X124688172Y-75453712D01*
X124605311Y-75398347D01*
X124605310Y-75398346D01*
X124605306Y-75398345D01*
X124532248Y-75383813D01*
X124532245Y-75383813D01*
X121482897Y-75383813D01*
X121482894Y-75383813D01*
X121409835Y-75398345D01*
X121409831Y-75398346D01*
X121326970Y-75453712D01*
X121271604Y-75536573D01*
X121271603Y-75536577D01*
X121257071Y-75609634D01*
X121257071Y-75909813D01*
X121237386Y-75976852D01*
X121184582Y-76022607D01*
X121133071Y-76033813D01*
X117836602Y-76033813D01*
X117769563Y-76014128D01*
X117733500Y-75978704D01*
X117720601Y-75959399D01*
X117637739Y-75904033D01*
X117637735Y-75904032D01*
X117564677Y-75889500D01*
X117564674Y-75889500D01*
X112515326Y-75889500D01*
X112515323Y-75889500D01*
X112442264Y-75904032D01*
X112442260Y-75904033D01*
X112359399Y-75959399D01*
X112304033Y-76042260D01*
X112304032Y-76042264D01*
X112289500Y-76115321D01*
X112289500Y-78925500D01*
X112269815Y-78992539D01*
X112217011Y-79038294D01*
X112165500Y-79049500D01*
X97914500Y-79049500D01*
X97847461Y-79029815D01*
X97801706Y-78977011D01*
X97790500Y-78925500D01*
X97790500Y-75594500D01*
X97810185Y-75527461D01*
X97862989Y-75481706D01*
X97914500Y-75470500D01*
X98138543Y-75470500D01*
X98268582Y-75444632D01*
X98331835Y-75432051D01*
X98513914Y-75356632D01*
X98677782Y-75247139D01*
X98817139Y-75107782D01*
X98926632Y-74943914D01*
X99002051Y-74761835D01*
X99040500Y-74568541D01*
X99040500Y-74371459D01*
X99040500Y-74371456D01*
X99002052Y-74178170D01*
X99002051Y-74178169D01*
X99002051Y-74178165D01*
X99002049Y-74178160D01*
X98938997Y-74025936D01*
X98931528Y-73956467D01*
X98962804Y-73893988D01*
X98965849Y-73890831D01*
X102285077Y-70571605D01*
X102346400Y-70538120D01*
X102372758Y-70535286D01*
X104695501Y-70535286D01*
X104762540Y-70554971D01*
X104808295Y-70607775D01*
X104819501Y-70659286D01*
X104819501Y-70682662D01*
X104825908Y-70742269D01*
X104876202Y-70877114D01*
X104876206Y-70877121D01*
X104962452Y-70992330D01*
X104962455Y-70992333D01*
X105077664Y-71078579D01*
X105077671Y-71078583D01*
X105212517Y-71128877D01*
X105212516Y-71128877D01*
X105219444Y-71129621D01*
X105272127Y-71135286D01*
X106067872Y-71135285D01*
X106127483Y-71128877D01*
X106262331Y-71078582D01*
X106377546Y-70992332D01*
X106463796Y-70877117D01*
X106514091Y-70742269D01*
X106520500Y-70682659D01*
X106520499Y-69686914D01*
X106514091Y-69627303D01*
X106463796Y-69492455D01*
X106463795Y-69492454D01*
X106463793Y-69492450D01*
X106377547Y-69377241D01*
X106377544Y-69377238D01*
X106262335Y-69290992D01*
X106262328Y-69290988D01*
X106127482Y-69240694D01*
X106127483Y-69240694D01*
X106067883Y-69234287D01*
X106067881Y-69234286D01*
X106067873Y-69234286D01*
X106067864Y-69234286D01*
X105272129Y-69234286D01*
X105272123Y-69234287D01*
X105212516Y-69240694D01*
X105077671Y-69290988D01*
X105077664Y-69290992D01*
X104962455Y-69377238D01*
X104962452Y-69377241D01*
X104876206Y-69492450D01*
X104876202Y-69492457D01*
X104825908Y-69627303D01*
X104819501Y-69686902D01*
X104819501Y-69686909D01*
X104819500Y-69686921D01*
X104819500Y-69710286D01*
X104799815Y-69777325D01*
X104747011Y-69823080D01*
X104695500Y-69834286D01*
X102130070Y-69834286D01*
X102040926Y-69858172D01*
X102040923Y-69858173D01*
X101961005Y-69904313D01*
X101961000Y-69904317D01*
X98399998Y-73465318D01*
X98338675Y-73498803D01*
X98288126Y-73499254D01*
X98138544Y-73469500D01*
X98138541Y-73469500D01*
X97914500Y-73469500D01*
X97847461Y-73449815D01*
X97801706Y-73397011D01*
X97790500Y-73345500D01*
X97790500Y-73054500D01*
X97810185Y-72987461D01*
X97862989Y-72941706D01*
X97914500Y-72930500D01*
X98138543Y-72930500D01*
X98268582Y-72904632D01*
X98331835Y-72892051D01*
X98513914Y-72816632D01*
X98677782Y-72707139D01*
X98817139Y-72567782D01*
X98926632Y-72403914D01*
X99002051Y-72221835D01*
X99040500Y-72028541D01*
X99040500Y-71831459D01*
X99040500Y-71831456D01*
X99002052Y-71638170D01*
X99002051Y-71638169D01*
X99002051Y-71638165D01*
X99002049Y-71638160D01*
X98938997Y-71485936D01*
X98931528Y-71416467D01*
X98962804Y-71353988D01*
X98965849Y-71350831D01*
X102285077Y-68031605D01*
X102346400Y-67998120D01*
X102372758Y-67995286D01*
X104695501Y-67995286D01*
X104762540Y-68014971D01*
X104808295Y-68067775D01*
X104819501Y-68119286D01*
X104819501Y-68142662D01*
X104825908Y-68202269D01*
X104876202Y-68337114D01*
X104876206Y-68337121D01*
X104962452Y-68452330D01*
X104962455Y-68452333D01*
X105077664Y-68538579D01*
X105077671Y-68538583D01*
X105212517Y-68588877D01*
X105212516Y-68588877D01*
X105219444Y-68589621D01*
X105272127Y-68595286D01*
X106067872Y-68595285D01*
X106127483Y-68588877D01*
X106262331Y-68538582D01*
X106377546Y-68452332D01*
X106463796Y-68337117D01*
X106514091Y-68202269D01*
X106520500Y-68142659D01*
X106520499Y-67146914D01*
X106514091Y-67087303D01*
X106508401Y-67072048D01*
X106463797Y-66952457D01*
X106463793Y-66952450D01*
X106377547Y-66837241D01*
X106377544Y-66837238D01*
X106262335Y-66750992D01*
X106262328Y-66750988D01*
X106127482Y-66700694D01*
X106127483Y-66700694D01*
X106067883Y-66694287D01*
X106067881Y-66694286D01*
X106067873Y-66694286D01*
X106067864Y-66694286D01*
X105272129Y-66694286D01*
X105272123Y-66694287D01*
X105212516Y-66700694D01*
X105077671Y-66750988D01*
X105077664Y-66750992D01*
X104962455Y-66837238D01*
X104962452Y-66837241D01*
X104876206Y-66952450D01*
X104876202Y-66952457D01*
X104825908Y-67087303D01*
X104819501Y-67146902D01*
X104819501Y-67146909D01*
X104819500Y-67146921D01*
X104819500Y-67170286D01*
X104799815Y-67237325D01*
X104747011Y-67283080D01*
X104695500Y-67294286D01*
X102130070Y-67294286D01*
X102040926Y-67318172D01*
X102040923Y-67318173D01*
X101961005Y-67364313D01*
X101961000Y-67364317D01*
X98399998Y-70925318D01*
X98338675Y-70958803D01*
X98288126Y-70959254D01*
X98138544Y-70929500D01*
X98138541Y-70929500D01*
X97914500Y-70929500D01*
X97847461Y-70909815D01*
X97801706Y-70857011D01*
X97790500Y-70805500D01*
X97790500Y-70514500D01*
X97810185Y-70447461D01*
X97862989Y-70401706D01*
X97914500Y-70390500D01*
X98138543Y-70390500D01*
X98268582Y-70364632D01*
X98331835Y-70352051D01*
X98513914Y-70276632D01*
X98677782Y-70167139D01*
X98817139Y-70027782D01*
X98926632Y-69863914D01*
X99002051Y-69681835D01*
X99037732Y-69502457D01*
X99040500Y-69488543D01*
X99040500Y-69291456D01*
X99002052Y-69098170D01*
X99002051Y-69098169D01*
X99002051Y-69098165D01*
X99002049Y-69098160D01*
X98938997Y-68945936D01*
X98931528Y-68876467D01*
X98962804Y-68813988D01*
X98965849Y-68810831D01*
X102275077Y-65501605D01*
X102336400Y-65468120D01*
X102362758Y-65465286D01*
X104695501Y-65465286D01*
X104762540Y-65484971D01*
X104808295Y-65537775D01*
X104819501Y-65589286D01*
X104819501Y-65612662D01*
X104825908Y-65672269D01*
X104876202Y-65807114D01*
X104876206Y-65807121D01*
X104962452Y-65922330D01*
X104962455Y-65922333D01*
X105077664Y-66008579D01*
X105077671Y-66008583D01*
X105212517Y-66058877D01*
X105212516Y-66058877D01*
X105219444Y-66059621D01*
X105272127Y-66065286D01*
X106067872Y-66065285D01*
X106127483Y-66058877D01*
X106262331Y-66008582D01*
X106377546Y-65922332D01*
X106463796Y-65807117D01*
X106514091Y-65672269D01*
X106520500Y-65612659D01*
X106520499Y-64616914D01*
X106514091Y-64557303D01*
X106504673Y-64532053D01*
X106463797Y-64422457D01*
X106463793Y-64422450D01*
X106377547Y-64307241D01*
X106377544Y-64307238D01*
X106262335Y-64220992D01*
X106262328Y-64220988D01*
X106127482Y-64170694D01*
X106127483Y-64170694D01*
X106067883Y-64164287D01*
X106067881Y-64164286D01*
X106067873Y-64164286D01*
X106067864Y-64164286D01*
X105272129Y-64164286D01*
X105272123Y-64164287D01*
X105212516Y-64170694D01*
X105077671Y-64220988D01*
X105077664Y-64220992D01*
X104962455Y-64307238D01*
X104962452Y-64307241D01*
X104876206Y-64422450D01*
X104876202Y-64422457D01*
X104825908Y-64557303D01*
X104819715Y-64614913D01*
X104819501Y-64616909D01*
X104819500Y-64616921D01*
X104819500Y-64640286D01*
X104799815Y-64707325D01*
X104747011Y-64753080D01*
X104695500Y-64764286D01*
X102120070Y-64764286D01*
X102030926Y-64788172D01*
X102030923Y-64788173D01*
X101951005Y-64834313D01*
X101951000Y-64834317D01*
X98399998Y-68385318D01*
X98338675Y-68418803D01*
X98288126Y-68419254D01*
X98138544Y-68389500D01*
X98138541Y-68389500D01*
X97914500Y-68389500D01*
X97847461Y-68369815D01*
X97801706Y-68317011D01*
X97790500Y-68265500D01*
X97790500Y-67974500D01*
X97810185Y-67907461D01*
X97862989Y-67861706D01*
X97914500Y-67850500D01*
X98138543Y-67850500D01*
X98268582Y-67824632D01*
X98331835Y-67812051D01*
X98513914Y-67736632D01*
X98677782Y-67627139D01*
X98817139Y-67487782D01*
X98926632Y-67323914D01*
X99002051Y-67141835D01*
X99039721Y-66952457D01*
X99040500Y-66948543D01*
X99040500Y-66751456D01*
X99002052Y-66558170D01*
X99002051Y-66558169D01*
X99002051Y-66558165D01*
X99002049Y-66558160D01*
X98938997Y-66405936D01*
X98931528Y-66336467D01*
X98962804Y-66273988D01*
X98965849Y-66270831D01*
X102295077Y-62941605D01*
X102356400Y-62908120D01*
X102382758Y-62905286D01*
X104695501Y-62905286D01*
X104762540Y-62924971D01*
X104808295Y-62977775D01*
X104819501Y-63029286D01*
X104819501Y-63052662D01*
X104825908Y-63112269D01*
X104876202Y-63247114D01*
X104876206Y-63247121D01*
X104962452Y-63362330D01*
X104962455Y-63362333D01*
X105077664Y-63448579D01*
X105077671Y-63448583D01*
X105212517Y-63498877D01*
X105212516Y-63498877D01*
X105219444Y-63499621D01*
X105272127Y-63505286D01*
X106067872Y-63505285D01*
X106127483Y-63498877D01*
X106262331Y-63448582D01*
X106377546Y-63362332D01*
X106463796Y-63247117D01*
X106514091Y-63112269D01*
X106520500Y-63052659D01*
X106520499Y-62056921D01*
X106819500Y-62056921D01*
X106819500Y-63052656D01*
X106819501Y-63052662D01*
X106825908Y-63112269D01*
X106876202Y-63247114D01*
X106876206Y-63247121D01*
X106962452Y-63362330D01*
X106962455Y-63362333D01*
X107077664Y-63448579D01*
X107077671Y-63448583D01*
X107212517Y-63498877D01*
X107212516Y-63498877D01*
X107219444Y-63499621D01*
X107272127Y-63505286D01*
X108067872Y-63505285D01*
X108127483Y-63498877D01*
X108262331Y-63448582D01*
X108377546Y-63362332D01*
X108463796Y-63247117D01*
X108514091Y-63112269D01*
X108520500Y-63052659D01*
X108520500Y-63029286D01*
X108540185Y-62962247D01*
X108592989Y-62916492D01*
X108644500Y-62905286D01*
X109673856Y-62905286D01*
X109733456Y-62905286D01*
X109800495Y-62924971D01*
X109821137Y-62941605D01*
X110970002Y-64090470D01*
X111049926Y-64136614D01*
X111139070Y-64160500D01*
X111139071Y-64160500D01*
X111231358Y-64160500D01*
X111912067Y-64160500D01*
X111979106Y-64180185D01*
X112024861Y-64232989D01*
X112034805Y-64302147D01*
X112011334Y-64358811D01*
X111956203Y-64432455D01*
X111956202Y-64432457D01*
X111905908Y-64567303D01*
X111900575Y-64616913D01*
X111899501Y-64626909D01*
X111899500Y-64626921D01*
X111899500Y-64640286D01*
X111879815Y-64707325D01*
X111827011Y-64753080D01*
X111775500Y-64764286D01*
X108644499Y-64764286D01*
X108577460Y-64744601D01*
X108531705Y-64691797D01*
X108520499Y-64640286D01*
X108520499Y-64616915D01*
X108520498Y-64616909D01*
X108520497Y-64616902D01*
X108514091Y-64557303D01*
X108504673Y-64532053D01*
X108463797Y-64422457D01*
X108463793Y-64422450D01*
X108377547Y-64307241D01*
X108377544Y-64307238D01*
X108262335Y-64220992D01*
X108262328Y-64220988D01*
X108127482Y-64170694D01*
X108127483Y-64170694D01*
X108067883Y-64164287D01*
X108067881Y-64164286D01*
X108067873Y-64164286D01*
X108067864Y-64164286D01*
X107272129Y-64164286D01*
X107272123Y-64164287D01*
X107212516Y-64170694D01*
X107077671Y-64220988D01*
X107077664Y-64220992D01*
X106962455Y-64307238D01*
X106962452Y-64307241D01*
X106876206Y-64422450D01*
X106876202Y-64422457D01*
X106825908Y-64557303D01*
X106819715Y-64614913D01*
X106819501Y-64616909D01*
X106819500Y-64616921D01*
X106819500Y-65612656D01*
X106819501Y-65612662D01*
X106825908Y-65672269D01*
X106876202Y-65807114D01*
X106876206Y-65807121D01*
X106962452Y-65922330D01*
X106962455Y-65922333D01*
X107077664Y-66008579D01*
X107077671Y-66008583D01*
X107212517Y-66058877D01*
X107212516Y-66058877D01*
X107219444Y-66059621D01*
X107272127Y-66065286D01*
X108067872Y-66065285D01*
X108127483Y-66058877D01*
X108262331Y-66008582D01*
X108377546Y-65922332D01*
X108463796Y-65807117D01*
X108514091Y-65672269D01*
X108520500Y-65612659D01*
X108520500Y-65589286D01*
X108540185Y-65522247D01*
X108592989Y-65476492D01*
X108644500Y-65465286D01*
X109773856Y-65465286D01*
X109853456Y-65465286D01*
X109920495Y-65484971D01*
X109941137Y-65501605D01*
X111110002Y-66670470D01*
X111185892Y-66714285D01*
X111185894Y-66714287D01*
X111189924Y-66716613D01*
X111189926Y-66716614D01*
X111279070Y-66740500D01*
X111882123Y-66740500D01*
X111949162Y-66760185D01*
X111994917Y-66812989D01*
X112004861Y-66882147D01*
X111981390Y-66938811D01*
X111956203Y-66972455D01*
X111956202Y-66972457D01*
X111905908Y-67107303D01*
X111901650Y-67146913D01*
X111899501Y-67166909D01*
X111899500Y-67166921D01*
X111899500Y-67170286D01*
X111879815Y-67237325D01*
X111827011Y-67283080D01*
X111775500Y-67294286D01*
X108644499Y-67294286D01*
X108577460Y-67274601D01*
X108531705Y-67221797D01*
X108520499Y-67170286D01*
X108520499Y-67146915D01*
X108520498Y-67146909D01*
X108520497Y-67146902D01*
X108514091Y-67087303D01*
X108508401Y-67072048D01*
X108463797Y-66952457D01*
X108463793Y-66952450D01*
X108377547Y-66837241D01*
X108377544Y-66837238D01*
X108262335Y-66750992D01*
X108262328Y-66750988D01*
X108127482Y-66700694D01*
X108127483Y-66700694D01*
X108067883Y-66694287D01*
X108067881Y-66694286D01*
X108067873Y-66694286D01*
X108067864Y-66694286D01*
X107272129Y-66694286D01*
X107272123Y-66694287D01*
X107212516Y-66700694D01*
X107077671Y-66750988D01*
X107077664Y-66750992D01*
X106962455Y-66837238D01*
X106962452Y-66837241D01*
X106876206Y-66952450D01*
X106876202Y-66952457D01*
X106825908Y-67087303D01*
X106819501Y-67146902D01*
X106819501Y-67146909D01*
X106819500Y-67146921D01*
X106819500Y-68142656D01*
X106819501Y-68142662D01*
X106825908Y-68202269D01*
X106876202Y-68337114D01*
X106876206Y-68337121D01*
X106962452Y-68452330D01*
X106962455Y-68452333D01*
X107077664Y-68538579D01*
X107077671Y-68538583D01*
X107212517Y-68588877D01*
X107212516Y-68588877D01*
X107219444Y-68589621D01*
X107272127Y-68595286D01*
X108067872Y-68595285D01*
X108127483Y-68588877D01*
X108262331Y-68538582D01*
X108377546Y-68452332D01*
X108463796Y-68337117D01*
X108514091Y-68202269D01*
X108520500Y-68142659D01*
X108520500Y-68119286D01*
X108540185Y-68052247D01*
X108592989Y-68006492D01*
X108644500Y-67995286D01*
X109623456Y-67995286D01*
X109690495Y-68014971D01*
X109711137Y-68031605D01*
X110900002Y-69220470D01*
X110976632Y-69264712D01*
X110979926Y-69266614D01*
X111069070Y-69290500D01*
X111867151Y-69290500D01*
X111934190Y-69310185D01*
X111979945Y-69362989D01*
X111989889Y-69432147D01*
X111966418Y-69488811D01*
X111956203Y-69502455D01*
X111956202Y-69502457D01*
X111905908Y-69637303D01*
X111900575Y-69686913D01*
X111899501Y-69696909D01*
X111899500Y-69696921D01*
X111899500Y-69710286D01*
X111879815Y-69777325D01*
X111827011Y-69823080D01*
X111775500Y-69834286D01*
X108644499Y-69834286D01*
X108577460Y-69814601D01*
X108531705Y-69761797D01*
X108520499Y-69710286D01*
X108520499Y-69686915D01*
X108520498Y-69686909D01*
X108520497Y-69686902D01*
X108514091Y-69627303D01*
X108463796Y-69492455D01*
X108463795Y-69492454D01*
X108463793Y-69492450D01*
X108377547Y-69377241D01*
X108377544Y-69377238D01*
X108262335Y-69290992D01*
X108262328Y-69290988D01*
X108127482Y-69240694D01*
X108127483Y-69240694D01*
X108067883Y-69234287D01*
X108067881Y-69234286D01*
X108067873Y-69234286D01*
X108067864Y-69234286D01*
X107272129Y-69234286D01*
X107272123Y-69234287D01*
X107212516Y-69240694D01*
X107077671Y-69290988D01*
X107077664Y-69290992D01*
X106962455Y-69377238D01*
X106962452Y-69377241D01*
X106876206Y-69492450D01*
X106876202Y-69492457D01*
X106825908Y-69627303D01*
X106819501Y-69686902D01*
X106819501Y-69686909D01*
X106819500Y-69686921D01*
X106819500Y-70682656D01*
X106819501Y-70682662D01*
X106825908Y-70742269D01*
X106876202Y-70877114D01*
X106876206Y-70877121D01*
X106962452Y-70992330D01*
X106962455Y-70992333D01*
X107077664Y-71078579D01*
X107077671Y-71078583D01*
X107212517Y-71128877D01*
X107212516Y-71128877D01*
X107219444Y-71129621D01*
X107272127Y-71135286D01*
X108067872Y-71135285D01*
X108127483Y-71128877D01*
X108262331Y-71078582D01*
X108377546Y-70992332D01*
X108463796Y-70877117D01*
X108514091Y-70742269D01*
X108520500Y-70682659D01*
X108520500Y-70659286D01*
X108540185Y-70592247D01*
X108592989Y-70546492D01*
X108644500Y-70535286D01*
X109443456Y-70535286D01*
X109510495Y-70554971D01*
X109531137Y-70571605D01*
X110202714Y-71243181D01*
X110804745Y-71845212D01*
X110870002Y-71910469D01*
X110870005Y-71910470D01*
X110870008Y-71910473D01*
X110949920Y-71956611D01*
X110949921Y-71956611D01*
X110949926Y-71956614D01*
X111039070Y-71980500D01*
X111039072Y-71980500D01*
X133556142Y-71980500D01*
X133556144Y-71980500D01*
X133645288Y-71956614D01*
X133725212Y-71910470D01*
X139024550Y-66611132D01*
X139085873Y-66577647D01*
X139112231Y-66574813D01*
X140173072Y-66574813D01*
X140240111Y-66594498D01*
X140285866Y-66647302D01*
X140297072Y-66698813D01*
X140297072Y-66998991D01*
X140311604Y-67072048D01*
X140311605Y-67072052D01*
X140329977Y-67099548D01*
X140366971Y-67154914D01*
X140449832Y-67210279D01*
X140449836Y-67210280D01*
X140522893Y-67224812D01*
X140522896Y-67224813D01*
X140522898Y-67224813D01*
X143572248Y-67224813D01*
X143572249Y-67224812D01*
X143645312Y-67210279D01*
X143728173Y-67154914D01*
X143783538Y-67072053D01*
X143798072Y-66998987D01*
X143798072Y-65449639D01*
X143798072Y-65449636D01*
X143798071Y-65449634D01*
X143783539Y-65376577D01*
X143783538Y-65376573D01*
X143728173Y-65293712D01*
X143645312Y-65238347D01*
X143645311Y-65238346D01*
X143645307Y-65238345D01*
X143572249Y-65223813D01*
X143572246Y-65223813D01*
X140522898Y-65223813D01*
X140522895Y-65223813D01*
X140449836Y-65238345D01*
X140449832Y-65238346D01*
X140366971Y-65293712D01*
X140311605Y-65376573D01*
X140311604Y-65376577D01*
X140297072Y-65449634D01*
X140297072Y-65749813D01*
X140277387Y-65816852D01*
X140224583Y-65862607D01*
X140173072Y-65873813D01*
X138869543Y-65873813D01*
X138780399Y-65897699D01*
X138780396Y-65897700D01*
X138700478Y-65943840D01*
X138700473Y-65943844D01*
X133401137Y-71243181D01*
X133339814Y-71276666D01*
X133313456Y-71279500D01*
X113459854Y-71279500D01*
X113392815Y-71259815D01*
X113347060Y-71207011D01*
X113337116Y-71137853D01*
X113366141Y-71074297D01*
X113385540Y-71056235D01*
X113457546Y-71002332D01*
X113543796Y-70887117D01*
X113594091Y-70752269D01*
X113600500Y-70692659D01*
X113600499Y-69696914D01*
X113594091Y-69637303D01*
X113590361Y-69627303D01*
X113543797Y-69502457D01*
X113543796Y-69502455D01*
X113533582Y-69488811D01*
X113509165Y-69423347D01*
X113524016Y-69355074D01*
X113573421Y-69305668D01*
X113632849Y-69290500D01*
X128856142Y-69290500D01*
X128856144Y-69290500D01*
X128945288Y-69266614D01*
X128948582Y-69264712D01*
X129025212Y-69220470D01*
X134174550Y-64071132D01*
X134235873Y-64037647D01*
X134262231Y-64034813D01*
X140173072Y-64034813D01*
X140240111Y-64054498D01*
X140285866Y-64107302D01*
X140297072Y-64158813D01*
X140297072Y-64458991D01*
X140311604Y-64532048D01*
X140311605Y-64532052D01*
X140311606Y-64532053D01*
X140366971Y-64614914D01*
X140404944Y-64640286D01*
X140449832Y-64670279D01*
X140449836Y-64670280D01*
X140522893Y-64684812D01*
X140522896Y-64684813D01*
X140522898Y-64684813D01*
X143572248Y-64684813D01*
X143572249Y-64684812D01*
X143645312Y-64670279D01*
X143728173Y-64614914D01*
X143783538Y-64532053D01*
X143798072Y-64458987D01*
X143798072Y-62909639D01*
X143798072Y-62909636D01*
X143798071Y-62909634D01*
X143783539Y-62836577D01*
X143783538Y-62836573D01*
X143728173Y-62753712D01*
X143645312Y-62698347D01*
X143645311Y-62698346D01*
X143645307Y-62698345D01*
X143572249Y-62683813D01*
X143572246Y-62683813D01*
X140522898Y-62683813D01*
X140522895Y-62683813D01*
X140449836Y-62698345D01*
X140449832Y-62698346D01*
X140366971Y-62753712D01*
X140311605Y-62836573D01*
X140311604Y-62836577D01*
X140297072Y-62909634D01*
X140297072Y-63209813D01*
X140277387Y-63276852D01*
X140224583Y-63322607D01*
X140173072Y-63333813D01*
X134019543Y-63333813D01*
X133930399Y-63357699D01*
X133930396Y-63357700D01*
X133850478Y-63403840D01*
X133850473Y-63403844D01*
X128701137Y-68553181D01*
X128639814Y-68586666D01*
X128613456Y-68589500D01*
X113617556Y-68589500D01*
X113550517Y-68569815D01*
X113504762Y-68517011D01*
X113494818Y-68447853D01*
X113518290Y-68391188D01*
X113519554Y-68389500D01*
X113543796Y-68357117D01*
X113594091Y-68222269D01*
X113600500Y-68162659D01*
X113600499Y-67166914D01*
X113594091Y-67107303D01*
X113586631Y-67087303D01*
X113543797Y-66972457D01*
X113543796Y-66972455D01*
X113518610Y-66938811D01*
X113494193Y-66873347D01*
X113509044Y-66805074D01*
X113558449Y-66755668D01*
X113617877Y-66740500D01*
X121133071Y-66740500D01*
X121200110Y-66760185D01*
X121245865Y-66812989D01*
X121257071Y-66864500D01*
X121257071Y-66998991D01*
X121271603Y-67072048D01*
X121271604Y-67072052D01*
X121289976Y-67099548D01*
X121326970Y-67154914D01*
X121409831Y-67210279D01*
X121409835Y-67210280D01*
X121482892Y-67224812D01*
X121482895Y-67224813D01*
X121482897Y-67224813D01*
X124532247Y-67224813D01*
X124532248Y-67224812D01*
X124605311Y-67210279D01*
X124688172Y-67154914D01*
X124743537Y-67072053D01*
X124758071Y-66998987D01*
X124758071Y-65449639D01*
X124758071Y-65449636D01*
X124758070Y-65449634D01*
X124743538Y-65376577D01*
X124743537Y-65376573D01*
X124688172Y-65293712D01*
X124605311Y-65238347D01*
X124605310Y-65238346D01*
X124605306Y-65238345D01*
X124532248Y-65223813D01*
X124532245Y-65223813D01*
X121482897Y-65223813D01*
X121482894Y-65223813D01*
X121409835Y-65238345D01*
X121409831Y-65238346D01*
X121326970Y-65293712D01*
X121271604Y-65376573D01*
X121271603Y-65376577D01*
X121257071Y-65449634D01*
X121257071Y-65915500D01*
X121237386Y-65982539D01*
X121184582Y-66028294D01*
X121133071Y-66039500D01*
X113625042Y-66039500D01*
X113558003Y-66019815D01*
X113512248Y-65967011D01*
X113502304Y-65897853D01*
X113525776Y-65841188D01*
X113534290Y-65829815D01*
X113543796Y-65817117D01*
X113594091Y-65682269D01*
X113600500Y-65622659D01*
X113600499Y-64626914D01*
X113594091Y-64567303D01*
X113590361Y-64557303D01*
X113543797Y-64432457D01*
X113543796Y-64432455D01*
X113488666Y-64358811D01*
X113464249Y-64293347D01*
X113479100Y-64225074D01*
X113528505Y-64175668D01*
X113587933Y-64160500D01*
X121133071Y-64160500D01*
X121200110Y-64180185D01*
X121245865Y-64232989D01*
X121257071Y-64284500D01*
X121257071Y-64458991D01*
X121271603Y-64532048D01*
X121271604Y-64532052D01*
X121271605Y-64532053D01*
X121326970Y-64614914D01*
X121364943Y-64640286D01*
X121409831Y-64670279D01*
X121409835Y-64670280D01*
X121482892Y-64684812D01*
X121482895Y-64684813D01*
X121482897Y-64684813D01*
X124532247Y-64684813D01*
X124532248Y-64684812D01*
X124605311Y-64670279D01*
X124688172Y-64614914D01*
X124743537Y-64532053D01*
X124758071Y-64458987D01*
X124758071Y-62909639D01*
X124758071Y-62909636D01*
X124758070Y-62909634D01*
X124743538Y-62836577D01*
X124743537Y-62836573D01*
X124688172Y-62753712D01*
X124605311Y-62698347D01*
X124605310Y-62698346D01*
X124605306Y-62698345D01*
X124532248Y-62683813D01*
X124532245Y-62683813D01*
X121482897Y-62683813D01*
X121482894Y-62683813D01*
X121409835Y-62698345D01*
X121409831Y-62698346D01*
X121326970Y-62753712D01*
X121271604Y-62836573D01*
X121271603Y-62836577D01*
X121257071Y-62909634D01*
X121257071Y-63335500D01*
X121237386Y-63402539D01*
X121184582Y-63448294D01*
X121133071Y-63459500D01*
X113640015Y-63459500D01*
X113572976Y-63439815D01*
X113527221Y-63387011D01*
X113517277Y-63317853D01*
X113540747Y-63261191D01*
X113543794Y-63257120D01*
X113543797Y-63257114D01*
X113594091Y-63122268D01*
X113595166Y-63112268D01*
X113600500Y-63062659D01*
X113600499Y-62066914D01*
X113594091Y-62007303D01*
X113590361Y-61997303D01*
X113543797Y-61872457D01*
X113543793Y-61872450D01*
X113457547Y-61757241D01*
X113457544Y-61757238D01*
X113342335Y-61670992D01*
X113342328Y-61670988D01*
X113207482Y-61620694D01*
X113207483Y-61620694D01*
X113147883Y-61614287D01*
X113147881Y-61614286D01*
X113147873Y-61614286D01*
X113147864Y-61614286D01*
X112352129Y-61614286D01*
X112352123Y-61614287D01*
X112292516Y-61620694D01*
X112157671Y-61670988D01*
X112157664Y-61670992D01*
X112042455Y-61757238D01*
X112042452Y-61757241D01*
X111956206Y-61872450D01*
X111956202Y-61872457D01*
X111905908Y-62007303D01*
X111900575Y-62056913D01*
X111899501Y-62066909D01*
X111899500Y-62066921D01*
X111899500Y-62080286D01*
X111879815Y-62147325D01*
X111827011Y-62193080D01*
X111775500Y-62204286D01*
X108644499Y-62204286D01*
X108577460Y-62184601D01*
X108531705Y-62131797D01*
X108520499Y-62080286D01*
X108520499Y-62056915D01*
X108520498Y-62056909D01*
X108520497Y-62056902D01*
X108514091Y-61997303D01*
X108463796Y-61862455D01*
X108463795Y-61862454D01*
X108463793Y-61862450D01*
X108377547Y-61747241D01*
X108377544Y-61747238D01*
X108262335Y-61660992D01*
X108262328Y-61660988D01*
X108127482Y-61610694D01*
X108127483Y-61610694D01*
X108067883Y-61604287D01*
X108067881Y-61604286D01*
X108067873Y-61604286D01*
X108067864Y-61604286D01*
X107272129Y-61604286D01*
X107272123Y-61604287D01*
X107212516Y-61610694D01*
X107077671Y-61660988D01*
X107077664Y-61660992D01*
X106962455Y-61747238D01*
X106962452Y-61747241D01*
X106876206Y-61862450D01*
X106876202Y-61862457D01*
X106825908Y-61997303D01*
X106819501Y-62056902D01*
X106819501Y-62056909D01*
X106819500Y-62056921D01*
X106520499Y-62056921D01*
X106520499Y-62056914D01*
X106514091Y-61997303D01*
X106463796Y-61862455D01*
X106463795Y-61862454D01*
X106463793Y-61862450D01*
X106377547Y-61747241D01*
X106377544Y-61747238D01*
X106262335Y-61660992D01*
X106262328Y-61660988D01*
X106127482Y-61610694D01*
X106127483Y-61610694D01*
X106067883Y-61604287D01*
X106067881Y-61604286D01*
X106067873Y-61604286D01*
X106067864Y-61604286D01*
X105272129Y-61604286D01*
X105272123Y-61604287D01*
X105212516Y-61610694D01*
X105077671Y-61660988D01*
X105077664Y-61660992D01*
X104962455Y-61747238D01*
X104962452Y-61747241D01*
X104876206Y-61862450D01*
X104876202Y-61862457D01*
X104825908Y-61997303D01*
X104819501Y-62056902D01*
X104819501Y-62056909D01*
X104819500Y-62056921D01*
X104819500Y-62080286D01*
X104799815Y-62147325D01*
X104747011Y-62193080D01*
X104695500Y-62204286D01*
X102140070Y-62204286D01*
X102050926Y-62228172D01*
X102050923Y-62228173D01*
X101971005Y-62274313D01*
X101971000Y-62274317D01*
X98399998Y-65845318D01*
X98338675Y-65878803D01*
X98288126Y-65879254D01*
X98138544Y-65849500D01*
X98138541Y-65849500D01*
X97914500Y-65849500D01*
X97847461Y-65829815D01*
X97801706Y-65777011D01*
X97790500Y-65725500D01*
X97790500Y-60354500D01*
X97810185Y-60287461D01*
X97862989Y-60241706D01*
X97914500Y-60230500D01*
X98138543Y-60230500D01*
X98268582Y-60204632D01*
X98331835Y-60192051D01*
X98513914Y-60116632D01*
X98677782Y-60007139D01*
X98817139Y-59867782D01*
X98926632Y-59703914D01*
X98950186Y-59647046D01*
X98994026Y-59592645D01*
X99060320Y-59570579D01*
X99064747Y-59570500D01*
X104695501Y-59570500D01*
X104762540Y-59590185D01*
X104808295Y-59642989D01*
X104819501Y-59694500D01*
X104819501Y-59717876D01*
X104825908Y-59777483D01*
X104876202Y-59912328D01*
X104876206Y-59912335D01*
X104962452Y-60027544D01*
X104962455Y-60027547D01*
X105077664Y-60113793D01*
X105077671Y-60113797D01*
X105212517Y-60164091D01*
X105212516Y-60164091D01*
X105219444Y-60164835D01*
X105272127Y-60170500D01*
X106067872Y-60170499D01*
X106127483Y-60164091D01*
X106262331Y-60113796D01*
X106377546Y-60027546D01*
X106463796Y-59912331D01*
X106514091Y-59777483D01*
X106520500Y-59717873D01*
X106520499Y-58722128D01*
X106514091Y-58662517D01*
X106514090Y-58662515D01*
X106463797Y-58527671D01*
X106463793Y-58527664D01*
X106377547Y-58412455D01*
X106377544Y-58412452D01*
X106262335Y-58326206D01*
X106262328Y-58326202D01*
X106127482Y-58275908D01*
X106127483Y-58275908D01*
X106067883Y-58269501D01*
X106067881Y-58269500D01*
X106067873Y-58269500D01*
X106067864Y-58269500D01*
X105272129Y-58269500D01*
X105272123Y-58269501D01*
X105212516Y-58275908D01*
X105077671Y-58326202D01*
X105077664Y-58326206D01*
X104962455Y-58412452D01*
X104962452Y-58412455D01*
X104876206Y-58527664D01*
X104876202Y-58527671D01*
X104825908Y-58662517D01*
X104819501Y-58722116D01*
X104819501Y-58722123D01*
X104819500Y-58722135D01*
X104819500Y-58745500D01*
X104799815Y-58812539D01*
X104747011Y-58858294D01*
X104695500Y-58869500D01*
X99056463Y-58869500D01*
X98989424Y-58849815D01*
X98943669Y-58797011D01*
X98941917Y-58792987D01*
X98926632Y-58756086D01*
X98903934Y-58722116D01*
X98817139Y-58592217D01*
X98677785Y-58452863D01*
X98677781Y-58452860D01*
X98513920Y-58343371D01*
X98513907Y-58343364D01*
X98331839Y-58267950D01*
X98331829Y-58267947D01*
X98138543Y-58229500D01*
X98138541Y-58229500D01*
X97914500Y-58229500D01*
X97847461Y-58209815D01*
X97801706Y-58157011D01*
X97790500Y-58105500D01*
X97790500Y-57814500D01*
X97810185Y-57747461D01*
X97862989Y-57701706D01*
X97914500Y-57690500D01*
X98138543Y-57690500D01*
X98275881Y-57663181D01*
X98331835Y-57652051D01*
X98513914Y-57576632D01*
X98677782Y-57467139D01*
X98817139Y-57327782D01*
X98926632Y-57163914D01*
X98941902Y-57127047D01*
X98985742Y-57072645D01*
X99052036Y-57050579D01*
X99056463Y-57050500D01*
X104695501Y-57050500D01*
X104762540Y-57070185D01*
X104808295Y-57122989D01*
X104819501Y-57174500D01*
X104819501Y-57197876D01*
X104825908Y-57257483D01*
X104876202Y-57392328D01*
X104876206Y-57392335D01*
X104962452Y-57507544D01*
X104962455Y-57507547D01*
X105077664Y-57593793D01*
X105077671Y-57593797D01*
X105212517Y-57644091D01*
X105212516Y-57644091D01*
X105219444Y-57644835D01*
X105272127Y-57650500D01*
X106067872Y-57650499D01*
X106127483Y-57644091D01*
X106262331Y-57593796D01*
X106377546Y-57507546D01*
X106463796Y-57392331D01*
X106514091Y-57257483D01*
X106520500Y-57197873D01*
X106520499Y-56202128D01*
X106514091Y-56142517D01*
X106480411Y-56052217D01*
X106463797Y-56007671D01*
X106463793Y-56007664D01*
X106377547Y-55892455D01*
X106377544Y-55892452D01*
X106262335Y-55806206D01*
X106262328Y-55806202D01*
X106127482Y-55755908D01*
X106127483Y-55755908D01*
X106067883Y-55749501D01*
X106067881Y-55749500D01*
X106067873Y-55749500D01*
X106067864Y-55749500D01*
X105272129Y-55749500D01*
X105272123Y-55749501D01*
X105212516Y-55755908D01*
X105077671Y-55806202D01*
X105077664Y-55806206D01*
X104962455Y-55892452D01*
X104962452Y-55892455D01*
X104876206Y-56007664D01*
X104876202Y-56007671D01*
X104825908Y-56142517D01*
X104819501Y-56202116D01*
X104819501Y-56202123D01*
X104819500Y-56202135D01*
X104819500Y-56225500D01*
X104799815Y-56292539D01*
X104747011Y-56338294D01*
X104695500Y-56349500D01*
X99064747Y-56349500D01*
X98997708Y-56329815D01*
X98951953Y-56277011D01*
X98950202Y-56272992D01*
X98926632Y-56216086D01*
X98820891Y-56057833D01*
X98817139Y-56052217D01*
X98677785Y-55912863D01*
X98677781Y-55912860D01*
X98513920Y-55803371D01*
X98513907Y-55803364D01*
X98331839Y-55727950D01*
X98331829Y-55727947D01*
X98138543Y-55689500D01*
X98138541Y-55689500D01*
X97914500Y-55689500D01*
X97847461Y-55669815D01*
X97801706Y-55617011D01*
X97790500Y-55565500D01*
X97790500Y-55274500D01*
X97810185Y-55207461D01*
X97862989Y-55161706D01*
X97914500Y-55150500D01*
X98138543Y-55150500D01*
X98268582Y-55124632D01*
X98331835Y-55112051D01*
X98513914Y-55036632D01*
X98677782Y-54927139D01*
X98817139Y-54787782D01*
X98926632Y-54623914D01*
X98941902Y-54587047D01*
X98985742Y-54532645D01*
X99052036Y-54510579D01*
X99056463Y-54510500D01*
X104695501Y-54510500D01*
X104762540Y-54530185D01*
X104808295Y-54582989D01*
X104819501Y-54634500D01*
X104819501Y-54657876D01*
X104825908Y-54717483D01*
X104876202Y-54852328D01*
X104876206Y-54852335D01*
X104962452Y-54967544D01*
X104962455Y-54967547D01*
X105077664Y-55053793D01*
X105077671Y-55053797D01*
X105212517Y-55104091D01*
X105212516Y-55104091D01*
X105219444Y-55104835D01*
X105272127Y-55110500D01*
X106067872Y-55110499D01*
X106127483Y-55104091D01*
X106262331Y-55053796D01*
X106377546Y-54967546D01*
X106463796Y-54852331D01*
X106514091Y-54717483D01*
X106520500Y-54657873D01*
X106520499Y-53662128D01*
X106514091Y-53602517D01*
X106480411Y-53512217D01*
X106463797Y-53467671D01*
X106463793Y-53467664D01*
X106377547Y-53352455D01*
X106377544Y-53352452D01*
X106262335Y-53266206D01*
X106262328Y-53266202D01*
X106127482Y-53215908D01*
X106127483Y-53215908D01*
X106067883Y-53209501D01*
X106067881Y-53209500D01*
X106067873Y-53209500D01*
X106067864Y-53209500D01*
X105272129Y-53209500D01*
X105272123Y-53209501D01*
X105212516Y-53215908D01*
X105077671Y-53266202D01*
X105077664Y-53266206D01*
X104962455Y-53352452D01*
X104962452Y-53352455D01*
X104876206Y-53467664D01*
X104876202Y-53467671D01*
X104825908Y-53602517D01*
X104819501Y-53662116D01*
X104819501Y-53662123D01*
X104819500Y-53662135D01*
X104819500Y-53685500D01*
X104799815Y-53752539D01*
X104747011Y-53798294D01*
X104695500Y-53809500D01*
X99064747Y-53809500D01*
X98997708Y-53789815D01*
X98951953Y-53737011D01*
X98950202Y-53732992D01*
X98926632Y-53676086D01*
X98820891Y-53517833D01*
X98817139Y-53512217D01*
X98677785Y-53372863D01*
X98677781Y-53372860D01*
X98513920Y-53263371D01*
X98513907Y-53263364D01*
X98331839Y-53187950D01*
X98331829Y-53187947D01*
X98138543Y-53149500D01*
X98138541Y-53149500D01*
X97914500Y-53149500D01*
X97847461Y-53129815D01*
X97801706Y-53077011D01*
X97790500Y-53025500D01*
X97790500Y-52734500D01*
X97810185Y-52667461D01*
X97862989Y-52621706D01*
X97914500Y-52610500D01*
X98138543Y-52610500D01*
X98268582Y-52584632D01*
X98331835Y-52572051D01*
X98513914Y-52496632D01*
X98677782Y-52387139D01*
X98817139Y-52247782D01*
X98926632Y-52083914D01*
X98941902Y-52047047D01*
X98985742Y-51992645D01*
X99052036Y-51970579D01*
X99056463Y-51970500D01*
X104695501Y-51970500D01*
X104762540Y-51990185D01*
X104808295Y-52042989D01*
X104819501Y-52094500D01*
X104819501Y-52117876D01*
X104825908Y-52177483D01*
X104876202Y-52312328D01*
X104876206Y-52312335D01*
X104962452Y-52427544D01*
X104962455Y-52427547D01*
X105077664Y-52513793D01*
X105077671Y-52513797D01*
X105212517Y-52564091D01*
X105212516Y-52564091D01*
X105219444Y-52564835D01*
X105272127Y-52570500D01*
X106067872Y-52570499D01*
X106127483Y-52564091D01*
X106262331Y-52513796D01*
X106377546Y-52427546D01*
X106463796Y-52312331D01*
X106514091Y-52177483D01*
X106520500Y-52117873D01*
X106520499Y-51122128D01*
X106514091Y-51062517D01*
X106480411Y-50972217D01*
X106463797Y-50927671D01*
X106463793Y-50927664D01*
X106377547Y-50812455D01*
X106377544Y-50812452D01*
X106262335Y-50726206D01*
X106262328Y-50726202D01*
X106127482Y-50675908D01*
X106127483Y-50675908D01*
X106067883Y-50669501D01*
X106067881Y-50669500D01*
X106067873Y-50669500D01*
X106067864Y-50669500D01*
X105272129Y-50669500D01*
X105272123Y-50669501D01*
X105212516Y-50675908D01*
X105077671Y-50726202D01*
X105077664Y-50726206D01*
X104962455Y-50812452D01*
X104962452Y-50812455D01*
X104876206Y-50927664D01*
X104876202Y-50927671D01*
X104825908Y-51062517D01*
X104822725Y-51092127D01*
X104819501Y-51122123D01*
X104819500Y-51122135D01*
X104819500Y-51145500D01*
X104799815Y-51212539D01*
X104747011Y-51258294D01*
X104695500Y-51269500D01*
X99064747Y-51269500D01*
X98997708Y-51249815D01*
X98951953Y-51197011D01*
X98950202Y-51192992D01*
X98926632Y-51136086D01*
X98877474Y-51062516D01*
X98817139Y-50972217D01*
X98677785Y-50832863D01*
X98677781Y-50832860D01*
X98513920Y-50723371D01*
X98513907Y-50723364D01*
X98331839Y-50647950D01*
X98331829Y-50647947D01*
X98138543Y-50609500D01*
X98138541Y-50609500D01*
X97914500Y-50609500D01*
X97847461Y-50589815D01*
X97801706Y-50537011D01*
X97790500Y-50485500D01*
X97790500Y-50194500D01*
X97810185Y-50127461D01*
X97862989Y-50081706D01*
X97914500Y-50070500D01*
X98138543Y-50070500D01*
X98268582Y-50044632D01*
X98331835Y-50032051D01*
X98496616Y-49963797D01*
X98513907Y-49956635D01*
X98513907Y-49956634D01*
X98513914Y-49956632D01*
X98677782Y-49847139D01*
X98817139Y-49707782D01*
X98926632Y-49543914D01*
X98946044Y-49497046D01*
X98989884Y-49442645D01*
X99056178Y-49420579D01*
X99060605Y-49420500D01*
X104695501Y-49420500D01*
X104762540Y-49440185D01*
X104808295Y-49492989D01*
X104819501Y-49544500D01*
X104819501Y-49567876D01*
X104825908Y-49627483D01*
X104876202Y-49762328D01*
X104876206Y-49762335D01*
X104962452Y-49877544D01*
X104962455Y-49877547D01*
X105077664Y-49963793D01*
X105077671Y-49963797D01*
X105212517Y-50014091D01*
X105212516Y-50014091D01*
X105219444Y-50014835D01*
X105272127Y-50020500D01*
X106067872Y-50020499D01*
X106127483Y-50014091D01*
X106262331Y-49963796D01*
X106377546Y-49877546D01*
X106463796Y-49762331D01*
X106514091Y-49627483D01*
X106520500Y-49567873D01*
X106520499Y-48572128D01*
X106514091Y-48512517D01*
X106484141Y-48432218D01*
X106463797Y-48377671D01*
X106463793Y-48377664D01*
X106377547Y-48262455D01*
X106377544Y-48262452D01*
X106262335Y-48176206D01*
X106262328Y-48176202D01*
X106127482Y-48125908D01*
X106127483Y-48125908D01*
X106067883Y-48119501D01*
X106067881Y-48119500D01*
X106067873Y-48119500D01*
X106067864Y-48119500D01*
X105272129Y-48119500D01*
X105272123Y-48119501D01*
X105212516Y-48125908D01*
X105077671Y-48176202D01*
X105077664Y-48176206D01*
X104962455Y-48262452D01*
X104962452Y-48262455D01*
X104876206Y-48377664D01*
X104876202Y-48377671D01*
X104825908Y-48512517D01*
X104819501Y-48572116D01*
X104819501Y-48572123D01*
X104819500Y-48572135D01*
X104819500Y-48595500D01*
X104799815Y-48662539D01*
X104747011Y-48708294D01*
X104695500Y-48719500D01*
X99060605Y-48719500D01*
X98993566Y-48699815D01*
X98947811Y-48647011D01*
X98946060Y-48642990D01*
X98926632Y-48596086D01*
X98917302Y-48582123D01*
X98817139Y-48432217D01*
X98677785Y-48292863D01*
X98677781Y-48292860D01*
X98513920Y-48183371D01*
X98513907Y-48183364D01*
X98331839Y-48107950D01*
X98331829Y-48107947D01*
X98138543Y-48069500D01*
X98138541Y-48069500D01*
X97914500Y-48069500D01*
X97847461Y-48049815D01*
X97801706Y-47997011D01*
X97790500Y-47945500D01*
X97790500Y-47654500D01*
X97810185Y-47587461D01*
X97862989Y-47541706D01*
X97914500Y-47530500D01*
X98138543Y-47530500D01*
X98268582Y-47504632D01*
X98331835Y-47492051D01*
X98496616Y-47423797D01*
X98513907Y-47416635D01*
X98513907Y-47416634D01*
X98513914Y-47416632D01*
X98677782Y-47307139D01*
X98817139Y-47167782D01*
X98926632Y-47003914D01*
X98946044Y-46957046D01*
X98989884Y-46902645D01*
X99056178Y-46880579D01*
X99060605Y-46880500D01*
X104695501Y-46880500D01*
X104762540Y-46900185D01*
X104808295Y-46952989D01*
X104819501Y-47004500D01*
X104819501Y-47027876D01*
X104825908Y-47087483D01*
X104876202Y-47222328D01*
X104876206Y-47222335D01*
X104962452Y-47337544D01*
X104962455Y-47337547D01*
X105077664Y-47423793D01*
X105077671Y-47423797D01*
X105212517Y-47474091D01*
X105212516Y-47474091D01*
X105219444Y-47474835D01*
X105272127Y-47480500D01*
X106067872Y-47480499D01*
X106127483Y-47474091D01*
X106262331Y-47423796D01*
X106377546Y-47337546D01*
X106463796Y-47222331D01*
X106514091Y-47087483D01*
X106520500Y-47027873D01*
X106520499Y-46032135D01*
X106819500Y-46032135D01*
X106819500Y-47027870D01*
X106819501Y-47027876D01*
X106825908Y-47087483D01*
X106876202Y-47222328D01*
X106876206Y-47222335D01*
X106962452Y-47337544D01*
X106962455Y-47337547D01*
X107077664Y-47423793D01*
X107077671Y-47423797D01*
X107212517Y-47474091D01*
X107212516Y-47474091D01*
X107219444Y-47474835D01*
X107272127Y-47480500D01*
X108067872Y-47480499D01*
X108127483Y-47474091D01*
X108262331Y-47423796D01*
X108377546Y-47337546D01*
X108463796Y-47222331D01*
X108514091Y-47087483D01*
X108520500Y-47027873D01*
X108520500Y-47004500D01*
X108540185Y-46937461D01*
X108592989Y-46891706D01*
X108644500Y-46880500D01*
X109403456Y-46880500D01*
X109470495Y-46900185D01*
X109491137Y-46916819D01*
X110774788Y-48200470D01*
X110774789Y-48200471D01*
X110774791Y-48200472D01*
X110824376Y-48229099D01*
X110824378Y-48229101D01*
X110824379Y-48229101D01*
X110854712Y-48246614D01*
X110943856Y-48270500D01*
X111821312Y-48270500D01*
X111843129Y-48276906D01*
X111865793Y-48278753D01*
X111876012Y-48286561D01*
X111888351Y-48290185D01*
X111903239Y-48307367D01*
X111921309Y-48321175D01*
X111925684Y-48333270D01*
X111934106Y-48342989D01*
X111937341Y-48365493D01*
X111945078Y-48386878D01*
X111942707Y-48402807D01*
X111944050Y-48412147D01*
X111942212Y-48422055D01*
X111940378Y-48430099D01*
X111905909Y-48522517D01*
X111899500Y-48582127D01*
X111899500Y-48609453D01*
X111896400Y-48623055D01*
X111885885Y-48641866D01*
X111879815Y-48662539D01*
X111869178Y-48671755D01*
X111862310Y-48684044D01*
X111843294Y-48694184D01*
X111827011Y-48708294D01*
X111809824Y-48712032D01*
X111800658Y-48716921D01*
X111790979Y-48716132D01*
X111775500Y-48719500D01*
X108644499Y-48719500D01*
X108577460Y-48699815D01*
X108531705Y-48647011D01*
X108520499Y-48595500D01*
X108520499Y-48572129D01*
X108520498Y-48572123D01*
X108520497Y-48572116D01*
X108514091Y-48512517D01*
X108484141Y-48432218D01*
X108463797Y-48377671D01*
X108463793Y-48377664D01*
X108377547Y-48262455D01*
X108377544Y-48262452D01*
X108262335Y-48176206D01*
X108262328Y-48176202D01*
X108127482Y-48125908D01*
X108127483Y-48125908D01*
X108067883Y-48119501D01*
X108067881Y-48119500D01*
X108067873Y-48119500D01*
X108067864Y-48119500D01*
X107272129Y-48119500D01*
X107272123Y-48119501D01*
X107212516Y-48125908D01*
X107077671Y-48176202D01*
X107077664Y-48176206D01*
X106962455Y-48262452D01*
X106962452Y-48262455D01*
X106876206Y-48377664D01*
X106876202Y-48377671D01*
X106825908Y-48512517D01*
X106819501Y-48572116D01*
X106819501Y-48572123D01*
X106819500Y-48572135D01*
X106819500Y-49567870D01*
X106819501Y-49567876D01*
X106825908Y-49627483D01*
X106876202Y-49762328D01*
X106876206Y-49762335D01*
X106962452Y-49877544D01*
X106962455Y-49877547D01*
X107077664Y-49963793D01*
X107077671Y-49963797D01*
X107212517Y-50014091D01*
X107212516Y-50014091D01*
X107219444Y-50014835D01*
X107272127Y-50020500D01*
X108067872Y-50020499D01*
X108127483Y-50014091D01*
X108262331Y-49963796D01*
X108377546Y-49877546D01*
X108463796Y-49762331D01*
X108514091Y-49627483D01*
X108520500Y-49567873D01*
X108520500Y-49544500D01*
X108540185Y-49477461D01*
X108592989Y-49431706D01*
X108644500Y-49420500D01*
X109373456Y-49420500D01*
X109440495Y-49440185D01*
X109461137Y-49456819D01*
X110744788Y-50740470D01*
X110744789Y-50740471D01*
X110744791Y-50740472D01*
X110794376Y-50769099D01*
X110794378Y-50769101D01*
X110794379Y-50769101D01*
X110824712Y-50786614D01*
X110913856Y-50810500D01*
X111810122Y-50810500D01*
X111877161Y-50830185D01*
X111922916Y-50882989D01*
X111932860Y-50952147D01*
X111932486Y-50954578D01*
X111930528Y-50966509D01*
X111905909Y-51032517D01*
X111899500Y-51092127D01*
X111899500Y-51155607D01*
X111897864Y-51165578D01*
X111886924Y-51188326D01*
X111879815Y-51212539D01*
X111872042Y-51219273D01*
X111867584Y-51228546D01*
X111846080Y-51241770D01*
X111827011Y-51258294D01*
X111814942Y-51260919D01*
X111808068Y-51265147D01*
X111796559Y-51264918D01*
X111775500Y-51269500D01*
X108644499Y-51269500D01*
X108577460Y-51249815D01*
X108531705Y-51197011D01*
X108520499Y-51145500D01*
X108520499Y-51122129D01*
X108520498Y-51122123D01*
X108520497Y-51122116D01*
X108514091Y-51062517D01*
X108480411Y-50972217D01*
X108463797Y-50927671D01*
X108463793Y-50927664D01*
X108377547Y-50812455D01*
X108377544Y-50812452D01*
X108262335Y-50726206D01*
X108262328Y-50726202D01*
X108127482Y-50675908D01*
X108127483Y-50675908D01*
X108067883Y-50669501D01*
X108067881Y-50669500D01*
X108067873Y-50669500D01*
X108067864Y-50669500D01*
X107272129Y-50669500D01*
X107272123Y-50669501D01*
X107212516Y-50675908D01*
X107077671Y-50726202D01*
X107077664Y-50726206D01*
X106962455Y-50812452D01*
X106962452Y-50812455D01*
X106876206Y-50927664D01*
X106876202Y-50927671D01*
X106825908Y-51062517D01*
X106822725Y-51092127D01*
X106819501Y-51122123D01*
X106819500Y-51122135D01*
X106819500Y-52117870D01*
X106819501Y-52117876D01*
X106825908Y-52177483D01*
X106876202Y-52312328D01*
X106876206Y-52312335D01*
X106962452Y-52427544D01*
X106962455Y-52427547D01*
X107077664Y-52513793D01*
X107077671Y-52513797D01*
X107212517Y-52564091D01*
X107212516Y-52564091D01*
X107219444Y-52564835D01*
X107272127Y-52570500D01*
X108067872Y-52570499D01*
X108127483Y-52564091D01*
X108262331Y-52513796D01*
X108377546Y-52427546D01*
X108463796Y-52312331D01*
X108514091Y-52177483D01*
X108520500Y-52117873D01*
X108520500Y-52094500D01*
X108540185Y-52027461D01*
X108592989Y-51981706D01*
X108644500Y-51970500D01*
X109353456Y-51970500D01*
X109420495Y-51990185D01*
X109441137Y-52006819D01*
X110714788Y-53280470D01*
X110714789Y-53280471D01*
X110714791Y-53280472D01*
X110764376Y-53309099D01*
X110764378Y-53309101D01*
X110764379Y-53309101D01*
X110794712Y-53326614D01*
X110883856Y-53350500D01*
X110883857Y-53350500D01*
X110976144Y-53350500D01*
X111821312Y-53350500D01*
X111888351Y-53370185D01*
X111934106Y-53422989D01*
X111944050Y-53492147D01*
X111942489Y-53500810D01*
X111940602Y-53509498D01*
X111905909Y-53602517D01*
X111899500Y-53662127D01*
X111899500Y-53698807D01*
X111896677Y-53711810D01*
X111886059Y-53731272D01*
X111879815Y-53752539D01*
X111869655Y-53761342D01*
X111863216Y-53773146D01*
X111843762Y-53783778D01*
X111827011Y-53798294D01*
X111810721Y-53801837D01*
X111801906Y-53806656D01*
X111791858Y-53805941D01*
X111775500Y-53809500D01*
X108644499Y-53809500D01*
X108577460Y-53789815D01*
X108531705Y-53737011D01*
X108520499Y-53685500D01*
X108520499Y-53662129D01*
X108520498Y-53662123D01*
X108520497Y-53662116D01*
X108514091Y-53602517D01*
X108480411Y-53512217D01*
X108463797Y-53467671D01*
X108463793Y-53467664D01*
X108377547Y-53352455D01*
X108377544Y-53352452D01*
X108262335Y-53266206D01*
X108262328Y-53266202D01*
X108127482Y-53215908D01*
X108127483Y-53215908D01*
X108067883Y-53209501D01*
X108067881Y-53209500D01*
X108067873Y-53209500D01*
X108067864Y-53209500D01*
X107272129Y-53209500D01*
X107272123Y-53209501D01*
X107212516Y-53215908D01*
X107077671Y-53266202D01*
X107077664Y-53266206D01*
X106962455Y-53352452D01*
X106962452Y-53352455D01*
X106876206Y-53467664D01*
X106876202Y-53467671D01*
X106825908Y-53602517D01*
X106819501Y-53662116D01*
X106819501Y-53662123D01*
X106819500Y-53662135D01*
X106819500Y-54657870D01*
X106819501Y-54657876D01*
X106825908Y-54717483D01*
X106876202Y-54852328D01*
X106876206Y-54852335D01*
X106962452Y-54967544D01*
X106962455Y-54967547D01*
X107077664Y-55053793D01*
X107077671Y-55053797D01*
X107212517Y-55104091D01*
X107212516Y-55104091D01*
X107219444Y-55104835D01*
X107272127Y-55110500D01*
X108067872Y-55110499D01*
X108127483Y-55104091D01*
X108262331Y-55053796D01*
X108377546Y-54967546D01*
X108463796Y-54852331D01*
X108514091Y-54717483D01*
X108520500Y-54657873D01*
X108520500Y-54634500D01*
X108540185Y-54567461D01*
X108592989Y-54521706D01*
X108644500Y-54510500D01*
X109473456Y-54510500D01*
X109540495Y-54530185D01*
X109561137Y-54546819D01*
X110834788Y-55820470D01*
X110834789Y-55820471D01*
X110834791Y-55820472D01*
X110884376Y-55849099D01*
X110884378Y-55849101D01*
X110884379Y-55849101D01*
X110914712Y-55866614D01*
X111003856Y-55890500D01*
X111003857Y-55890500D01*
X111096144Y-55890500D01*
X111821312Y-55890500D01*
X111888351Y-55910185D01*
X111934106Y-55962989D01*
X111944050Y-56032147D01*
X111942489Y-56040810D01*
X111940602Y-56049498D01*
X111905909Y-56142517D01*
X111899500Y-56202127D01*
X111899500Y-56238807D01*
X111896677Y-56251810D01*
X111886059Y-56271272D01*
X111879815Y-56292539D01*
X111869655Y-56301342D01*
X111863216Y-56313146D01*
X111843762Y-56323778D01*
X111827011Y-56338294D01*
X111810721Y-56341837D01*
X111801906Y-56346656D01*
X111791858Y-56345941D01*
X111775500Y-56349500D01*
X108644499Y-56349500D01*
X108577460Y-56329815D01*
X108531705Y-56277011D01*
X108520499Y-56225500D01*
X108520499Y-56202129D01*
X108520498Y-56202123D01*
X108520497Y-56202116D01*
X108514091Y-56142517D01*
X108480411Y-56052217D01*
X108463797Y-56007671D01*
X108463793Y-56007664D01*
X108377547Y-55892455D01*
X108377544Y-55892452D01*
X108262335Y-55806206D01*
X108262328Y-55806202D01*
X108127482Y-55755908D01*
X108127483Y-55755908D01*
X108067883Y-55749501D01*
X108067881Y-55749500D01*
X108067873Y-55749500D01*
X108067864Y-55749500D01*
X107272129Y-55749500D01*
X107272123Y-55749501D01*
X107212516Y-55755908D01*
X107077671Y-55806202D01*
X107077664Y-55806206D01*
X106962455Y-55892452D01*
X106962452Y-55892455D01*
X106876206Y-56007664D01*
X106876202Y-56007671D01*
X106825908Y-56142517D01*
X106819501Y-56202116D01*
X106819501Y-56202123D01*
X106819500Y-56202135D01*
X106819500Y-57197870D01*
X106819501Y-57197876D01*
X106825908Y-57257483D01*
X106876202Y-57392328D01*
X106876206Y-57392335D01*
X106962452Y-57507544D01*
X106962455Y-57507547D01*
X107077664Y-57593793D01*
X107077671Y-57593797D01*
X107212517Y-57644091D01*
X107212516Y-57644091D01*
X107219444Y-57644835D01*
X107272127Y-57650500D01*
X108067872Y-57650499D01*
X108127483Y-57644091D01*
X108262331Y-57593796D01*
X108377546Y-57507546D01*
X108463796Y-57392331D01*
X108514091Y-57257483D01*
X108520500Y-57197873D01*
X108520500Y-57174500D01*
X108540185Y-57107461D01*
X108592989Y-57061706D01*
X108644500Y-57050500D01*
X109493456Y-57050500D01*
X109560495Y-57070185D01*
X109581137Y-57086819D01*
X110172922Y-57678603D01*
X110759531Y-58265212D01*
X110824788Y-58330469D01*
X110824791Y-58330470D01*
X110824794Y-58330473D01*
X110904706Y-58376611D01*
X110904707Y-58376611D01*
X110904712Y-58376614D01*
X110993856Y-58400500D01*
X111825041Y-58400500D01*
X111846653Y-58406846D01*
X111869108Y-58408595D01*
X111879529Y-58416499D01*
X111892080Y-58420185D01*
X111906829Y-58437206D01*
X111924776Y-58450819D01*
X111929270Y-58463104D01*
X111937835Y-58472989D01*
X111941040Y-58495280D01*
X111948779Y-58516436D01*
X111946404Y-58532587D01*
X111947779Y-58542147D01*
X111946038Y-58551624D01*
X111944183Y-58559898D01*
X111905909Y-58662517D01*
X111899500Y-58722127D01*
X111899500Y-58759227D01*
X111896497Y-58772624D01*
X111885945Y-58791659D01*
X111879815Y-58812539D01*
X111869343Y-58821612D01*
X111862625Y-58833734D01*
X111843456Y-58844044D01*
X111827011Y-58858294D01*
X111810137Y-58861964D01*
X111801092Y-58866830D01*
X111791284Y-58866066D01*
X111775500Y-58869500D01*
X108644499Y-58869500D01*
X108577460Y-58849815D01*
X108531705Y-58797011D01*
X108520499Y-58745500D01*
X108520499Y-58722129D01*
X108520498Y-58722123D01*
X108520497Y-58722116D01*
X108514091Y-58662517D01*
X108514090Y-58662515D01*
X108463797Y-58527671D01*
X108463793Y-58527664D01*
X108377547Y-58412455D01*
X108377544Y-58412452D01*
X108262335Y-58326206D01*
X108262328Y-58326202D01*
X108127482Y-58275908D01*
X108127483Y-58275908D01*
X108067883Y-58269501D01*
X108067881Y-58269500D01*
X108067873Y-58269500D01*
X108067864Y-58269500D01*
X107272129Y-58269500D01*
X107272123Y-58269501D01*
X107212516Y-58275908D01*
X107077671Y-58326202D01*
X107077664Y-58326206D01*
X106962455Y-58412452D01*
X106962452Y-58412455D01*
X106876206Y-58527664D01*
X106876202Y-58527671D01*
X106825908Y-58662517D01*
X106819501Y-58722116D01*
X106819501Y-58722123D01*
X106819500Y-58722135D01*
X106819500Y-59717870D01*
X106819501Y-59717876D01*
X106825908Y-59777483D01*
X106876202Y-59912328D01*
X106876206Y-59912335D01*
X106962452Y-60027544D01*
X106962455Y-60027547D01*
X107077664Y-60113793D01*
X107077671Y-60113797D01*
X107212517Y-60164091D01*
X107212516Y-60164091D01*
X107219444Y-60164835D01*
X107272127Y-60170500D01*
X108067872Y-60170499D01*
X108127483Y-60164091D01*
X108262331Y-60113796D01*
X108377546Y-60027546D01*
X108463796Y-59912331D01*
X108514091Y-59777483D01*
X108520500Y-59717873D01*
X108520500Y-59694500D01*
X108540185Y-59627461D01*
X108592989Y-59581706D01*
X108644500Y-59570500D01*
X109763456Y-59570500D01*
X109830495Y-59590185D01*
X109851137Y-59606819D01*
X111124788Y-60880470D01*
X111204712Y-60926614D01*
X111293856Y-60950500D01*
X111293857Y-60950500D01*
X111386144Y-60950500D01*
X121133071Y-60950500D01*
X121200110Y-60970185D01*
X121245865Y-61022989D01*
X121257071Y-61074500D01*
X121257071Y-61918991D01*
X121271603Y-61992048D01*
X121271604Y-61992052D01*
X121289976Y-62019548D01*
X121326970Y-62074914D01*
X121409831Y-62130279D01*
X121409835Y-62130280D01*
X121482892Y-62144812D01*
X121482895Y-62144813D01*
X121482897Y-62144813D01*
X124532247Y-62144813D01*
X124532248Y-62144812D01*
X124605311Y-62130279D01*
X124688172Y-62074914D01*
X124743537Y-61992053D01*
X124758071Y-61918987D01*
X124758071Y-60369639D01*
X124758071Y-60369636D01*
X124758070Y-60369634D01*
X124743538Y-60296577D01*
X124743537Y-60296573D01*
X124712084Y-60249500D01*
X124688172Y-60213712D01*
X124605311Y-60158347D01*
X124605310Y-60158346D01*
X124605306Y-60158345D01*
X124532248Y-60143813D01*
X124532245Y-60143813D01*
X121482897Y-60143813D01*
X121482894Y-60143813D01*
X121409835Y-60158345D01*
X121409831Y-60158346D01*
X121359387Y-60192052D01*
X121326970Y-60213712D01*
X121326969Y-60213713D01*
X121316815Y-60220498D01*
X121316089Y-60219412D01*
X121266178Y-60246666D01*
X121239820Y-60249500D01*
X113533610Y-60249500D01*
X113466571Y-60229815D01*
X113420816Y-60177011D01*
X113410872Y-60107853D01*
X113439897Y-60044297D01*
X113452918Y-60032173D01*
X113457542Y-60027548D01*
X113457546Y-60027546D01*
X113543796Y-59912331D01*
X113594091Y-59777483D01*
X113600500Y-59717873D01*
X113600499Y-58722128D01*
X113594091Y-58662517D01*
X113587856Y-58645800D01*
X113558777Y-58567832D01*
X113553793Y-58498141D01*
X113587279Y-58436818D01*
X113648602Y-58403334D01*
X113674959Y-58400500D01*
X121133071Y-58400500D01*
X121200110Y-58420185D01*
X121245865Y-58472989D01*
X121257071Y-58524500D01*
X121257071Y-59378991D01*
X121271603Y-59452048D01*
X121271604Y-59452052D01*
X121271605Y-59452053D01*
X121326970Y-59534914D01*
X121409690Y-59590185D01*
X121409831Y-59590279D01*
X121409835Y-59590280D01*
X121482892Y-59604812D01*
X121482895Y-59604813D01*
X121482897Y-59604813D01*
X124532247Y-59604813D01*
X124532248Y-59604812D01*
X124605311Y-59590279D01*
X124688172Y-59534914D01*
X124743537Y-59452053D01*
X124758071Y-59378987D01*
X124758071Y-57829639D01*
X124758071Y-57829636D01*
X124758070Y-57829634D01*
X124743538Y-57756577D01*
X124743537Y-57756573D01*
X124737449Y-57747461D01*
X124688172Y-57673712D01*
X124605311Y-57618347D01*
X124605310Y-57618346D01*
X124605306Y-57618345D01*
X124532248Y-57603813D01*
X124532245Y-57603813D01*
X121482897Y-57603813D01*
X121482894Y-57603813D01*
X121409835Y-57618345D01*
X121409831Y-57618346D01*
X121319650Y-57678603D01*
X121252972Y-57699480D01*
X121250760Y-57699500D01*
X113561571Y-57699500D01*
X113494532Y-57679815D01*
X113448777Y-57627011D01*
X113438833Y-57557853D01*
X113462305Y-57501189D01*
X113543793Y-57392335D01*
X113543792Y-57392335D01*
X113543796Y-57392331D01*
X113594091Y-57257483D01*
X113600500Y-57197873D01*
X113600499Y-56202128D01*
X113594091Y-56142517D01*
X113562506Y-56057833D01*
X113557522Y-55988142D01*
X113591007Y-55926818D01*
X113652330Y-55893334D01*
X113678688Y-55890500D01*
X121133071Y-55890500D01*
X121200110Y-55910185D01*
X121245865Y-55962989D01*
X121257071Y-56014500D01*
X121257071Y-56838991D01*
X121271603Y-56912048D01*
X121271604Y-56912052D01*
X121271605Y-56912053D01*
X121326970Y-56994914D01*
X121409831Y-57050279D01*
X121409835Y-57050280D01*
X121482892Y-57064812D01*
X121482895Y-57064813D01*
X121482897Y-57064813D01*
X124532247Y-57064813D01*
X124532248Y-57064812D01*
X124605311Y-57050279D01*
X124688172Y-56994914D01*
X124743537Y-56912053D01*
X124758071Y-56838987D01*
X124758071Y-55289639D01*
X124758071Y-55289636D01*
X124758070Y-55289634D01*
X124743538Y-55216577D01*
X124743537Y-55216573D01*
X124737449Y-55207461D01*
X124688172Y-55133712D01*
X124632806Y-55096718D01*
X124605310Y-55078346D01*
X124605306Y-55078345D01*
X124532248Y-55063813D01*
X124532245Y-55063813D01*
X121482897Y-55063813D01*
X121482894Y-55063813D01*
X121409835Y-55078345D01*
X121409831Y-55078347D01*
X121326972Y-55133710D01*
X121326970Y-55133711D01*
X121326747Y-55134045D01*
X121326517Y-55134389D01*
X121325152Y-55135530D01*
X121318337Y-55142346D01*
X121317727Y-55141736D01*
X121272908Y-55179195D01*
X121223415Y-55189500D01*
X113533610Y-55189500D01*
X113466571Y-55169815D01*
X113420816Y-55117011D01*
X113410872Y-55047853D01*
X113439897Y-54984297D01*
X113452918Y-54972173D01*
X113457542Y-54967548D01*
X113457546Y-54967546D01*
X113543796Y-54852331D01*
X113594091Y-54717483D01*
X113600500Y-54657873D01*
X113600499Y-53662128D01*
X113594091Y-53602517D01*
X113562506Y-53517833D01*
X113557522Y-53448142D01*
X113591007Y-53386818D01*
X113652330Y-53353334D01*
X113678688Y-53350500D01*
X121133071Y-53350500D01*
X121200110Y-53370185D01*
X121245865Y-53422989D01*
X121257071Y-53474500D01*
X121257071Y-54298991D01*
X121271603Y-54372048D01*
X121271604Y-54372052D01*
X121271605Y-54372053D01*
X121326970Y-54454914D01*
X121409831Y-54510279D01*
X121409835Y-54510280D01*
X121482892Y-54524812D01*
X121482895Y-54524813D01*
X121482897Y-54524813D01*
X124532247Y-54524813D01*
X124532248Y-54524812D01*
X124605311Y-54510279D01*
X124688172Y-54454914D01*
X124743537Y-54372053D01*
X124758071Y-54298987D01*
X124758071Y-52749639D01*
X124758071Y-52749636D01*
X124758070Y-52749634D01*
X124743538Y-52676577D01*
X124743537Y-52676573D01*
X124737449Y-52667461D01*
X124688172Y-52593712D01*
X124625535Y-52551860D01*
X124605310Y-52538346D01*
X124605306Y-52538345D01*
X124532248Y-52523813D01*
X124532245Y-52523813D01*
X121482897Y-52523813D01*
X121482894Y-52523813D01*
X121409835Y-52538345D01*
X121409831Y-52538347D01*
X121326972Y-52593710D01*
X121326970Y-52593711D01*
X121326747Y-52594045D01*
X121326517Y-52594389D01*
X121325152Y-52595530D01*
X121318337Y-52602346D01*
X121317727Y-52601736D01*
X121272908Y-52639195D01*
X121223415Y-52649500D01*
X113493536Y-52649500D01*
X113426497Y-52629815D01*
X113380742Y-52577011D01*
X113370798Y-52507853D01*
X113399823Y-52444297D01*
X113419224Y-52426234D01*
X113422926Y-52423462D01*
X113457546Y-52397546D01*
X113543796Y-52282331D01*
X113594091Y-52147483D01*
X113600500Y-52087873D01*
X113600499Y-51092128D01*
X113594091Y-51032517D01*
X113590439Y-51022726D01*
X113573696Y-50977832D01*
X113568712Y-50908140D01*
X113602198Y-50846818D01*
X113663521Y-50813333D01*
X113689878Y-50810500D01*
X121133071Y-50810500D01*
X121200110Y-50830185D01*
X121245865Y-50882989D01*
X121257071Y-50934500D01*
X121257071Y-51758991D01*
X121271603Y-51832048D01*
X121271604Y-51832052D01*
X121271605Y-51832053D01*
X121326970Y-51914914D01*
X121409831Y-51970279D01*
X121409835Y-51970280D01*
X121482892Y-51984812D01*
X121482895Y-51984813D01*
X121482897Y-51984813D01*
X124532247Y-51984813D01*
X124532248Y-51984812D01*
X124605311Y-51970279D01*
X124688172Y-51914914D01*
X124743537Y-51832053D01*
X124758071Y-51758987D01*
X124758071Y-50209639D01*
X124758071Y-50209636D01*
X124758070Y-50209634D01*
X124743538Y-50136577D01*
X124743537Y-50136573D01*
X124737449Y-50127461D01*
X124688172Y-50053712D01*
X124628874Y-50014091D01*
X124605310Y-49998346D01*
X124605306Y-49998345D01*
X124532248Y-49983813D01*
X124532245Y-49983813D01*
X121482897Y-49983813D01*
X121482894Y-49983813D01*
X121409835Y-49998345D01*
X121409831Y-49998347D01*
X121326972Y-50053710D01*
X121326970Y-50053711D01*
X121326747Y-50054045D01*
X121326517Y-50054389D01*
X121325152Y-50055530D01*
X121318337Y-50062346D01*
X121317727Y-50061736D01*
X121272908Y-50099195D01*
X121223415Y-50109500D01*
X113533610Y-50109500D01*
X113466571Y-50089815D01*
X113420816Y-50037011D01*
X113410872Y-49967853D01*
X113439897Y-49904297D01*
X113452918Y-49892173D01*
X113457542Y-49887548D01*
X113457546Y-49887546D01*
X113543796Y-49772331D01*
X113594091Y-49637483D01*
X113600500Y-49577873D01*
X113600499Y-48582128D01*
X113594091Y-48522517D01*
X113590361Y-48512517D01*
X113562506Y-48437833D01*
X113557522Y-48368142D01*
X113591007Y-48306818D01*
X113652330Y-48273334D01*
X113678688Y-48270500D01*
X121133071Y-48270500D01*
X121200110Y-48290185D01*
X121245865Y-48342989D01*
X121257071Y-48394500D01*
X121257071Y-49218991D01*
X121271603Y-49292048D01*
X121271604Y-49292052D01*
X121271605Y-49292053D01*
X121326970Y-49374914D01*
X121397084Y-49421762D01*
X121409831Y-49430279D01*
X121409835Y-49430280D01*
X121482892Y-49444812D01*
X121482895Y-49444813D01*
X121482897Y-49444813D01*
X124532247Y-49444813D01*
X124532248Y-49444812D01*
X124605311Y-49430279D01*
X124688172Y-49374914D01*
X124743537Y-49292053D01*
X124758071Y-49218987D01*
X124758071Y-47669639D01*
X124758071Y-47669636D01*
X124758070Y-47669634D01*
X124743538Y-47596577D01*
X124743537Y-47596573D01*
X124737449Y-47587461D01*
X124688172Y-47513712D01*
X124605311Y-47458347D01*
X124605310Y-47458346D01*
X124605306Y-47458345D01*
X124532248Y-47443813D01*
X124532245Y-47443813D01*
X121482897Y-47443813D01*
X121482894Y-47443813D01*
X121409835Y-47458345D01*
X121409831Y-47458347D01*
X121326972Y-47513710D01*
X121326970Y-47513711D01*
X121326747Y-47514045D01*
X121326517Y-47514389D01*
X121325152Y-47515530D01*
X121318337Y-47522346D01*
X121317727Y-47521736D01*
X121272908Y-47559195D01*
X121223415Y-47569500D01*
X113520252Y-47569500D01*
X113453213Y-47549815D01*
X113407458Y-47497011D01*
X113397514Y-47427853D01*
X113426539Y-47364297D01*
X113445940Y-47346234D01*
X113457546Y-47337546D01*
X113543796Y-47222331D01*
X113594091Y-47087483D01*
X113600500Y-47027873D01*
X113600499Y-46032128D01*
X113594091Y-45972517D01*
X113564141Y-45892218D01*
X113543797Y-45837671D01*
X113543793Y-45837664D01*
X113457547Y-45722455D01*
X113457544Y-45722452D01*
X113342335Y-45636206D01*
X113342328Y-45636202D01*
X113207482Y-45585908D01*
X113207483Y-45585908D01*
X113147883Y-45579501D01*
X113147881Y-45579500D01*
X113147873Y-45579500D01*
X113147864Y-45579500D01*
X112352129Y-45579500D01*
X112352123Y-45579501D01*
X112292516Y-45585908D01*
X112157671Y-45636202D01*
X112157664Y-45636206D01*
X112042455Y-45722452D01*
X112042452Y-45722455D01*
X111956206Y-45837664D01*
X111956202Y-45837671D01*
X111905908Y-45972517D01*
X111899501Y-46032116D01*
X111899501Y-46032123D01*
X111899500Y-46032135D01*
X111899500Y-46055500D01*
X111879815Y-46122539D01*
X111827011Y-46168294D01*
X111775500Y-46179500D01*
X108644499Y-46179500D01*
X108577460Y-46159815D01*
X108531705Y-46107011D01*
X108520499Y-46055500D01*
X108520499Y-46032129D01*
X108520498Y-46032123D01*
X108520497Y-46032116D01*
X108514091Y-45972517D01*
X108484141Y-45892218D01*
X108463797Y-45837671D01*
X108463793Y-45837664D01*
X108377547Y-45722455D01*
X108377544Y-45722452D01*
X108262335Y-45636206D01*
X108262328Y-45636202D01*
X108127482Y-45585908D01*
X108127483Y-45585908D01*
X108067883Y-45579501D01*
X108067881Y-45579500D01*
X108067873Y-45579500D01*
X108067864Y-45579500D01*
X107272129Y-45579500D01*
X107272123Y-45579501D01*
X107212516Y-45585908D01*
X107077671Y-45636202D01*
X107077664Y-45636206D01*
X106962455Y-45722452D01*
X106962452Y-45722455D01*
X106876206Y-45837664D01*
X106876202Y-45837671D01*
X106825908Y-45972517D01*
X106819501Y-46032116D01*
X106819501Y-46032123D01*
X106819500Y-46032135D01*
X106520499Y-46032135D01*
X106520499Y-46032128D01*
X106514091Y-45972517D01*
X106484141Y-45892218D01*
X106463797Y-45837671D01*
X106463793Y-45837664D01*
X106377547Y-45722455D01*
X106377544Y-45722452D01*
X106262335Y-45636206D01*
X106262328Y-45636202D01*
X106127482Y-45585908D01*
X106127483Y-45585908D01*
X106067883Y-45579501D01*
X106067881Y-45579500D01*
X106067873Y-45579500D01*
X106067864Y-45579500D01*
X105272129Y-45579500D01*
X105272123Y-45579501D01*
X105212516Y-45585908D01*
X105077671Y-45636202D01*
X105077664Y-45636206D01*
X104962455Y-45722452D01*
X104962452Y-45722455D01*
X104876206Y-45837664D01*
X104876202Y-45837671D01*
X104825908Y-45972517D01*
X104819501Y-46032116D01*
X104819501Y-46032123D01*
X104819500Y-46032135D01*
X104819500Y-46055500D01*
X104799815Y-46122539D01*
X104747011Y-46168294D01*
X104695500Y-46179500D01*
X99060605Y-46179500D01*
X98993566Y-46159815D01*
X98947811Y-46107011D01*
X98946060Y-46102990D01*
X98926632Y-46056086D01*
X98926240Y-46055500D01*
X98817139Y-45892217D01*
X98677785Y-45752863D01*
X98677781Y-45752860D01*
X98513920Y-45643371D01*
X98513907Y-45643364D01*
X98331839Y-45567950D01*
X98331829Y-45567947D01*
X98138543Y-45529500D01*
X98138541Y-45529500D01*
X97914500Y-45529500D01*
X97847461Y-45509815D01*
X97801706Y-45457011D01*
X97790500Y-45405500D01*
X97790500Y-44614500D01*
X97810185Y-44547461D01*
X97862989Y-44501706D01*
X97914500Y-44490500D01*
X146793072Y-44490500D01*
X146860111Y-44510185D01*
G37*
%TD.AperFunction*%
%TD*%
M02*
